/* XPM */
static char *result[] = {
/* columns rows colors chars-per-pixel */
"50 50 195 2 ",
"   c #0A1402",
".  c #261A0B",
"X  c #230D14",
"o  c #271E11",
"O  c #341B17",
"+  c #1E2800",
"@  c #252609",
"#  c #2B3609",
"$  c #2D360A",
"%  c #373B0F",
"&  c #2E2414",
"*  c #382C15",
"=  c #3C201C",
"-  c #3E2624",
";  c #393933",
":  c #3B3A38",
">  c #471A1A",
",  c #551E1E",
"<  c #48231B",
"1  c #632C1F",
"2  c #542B24",
"3  c #592825",
"4  c #52302E",
"5  c #4E3231",
"6  c #6A312C",
"7  c #79342F",
"8  c #773832",
"9  c #364308",
"0  c #3F510D",
"q  c #3E4813",
"w  c #3D4226",
"e  c #414D06",
"r  c #49560B",
"t  c #444C14",
"y  c #475311",
"u  c #4B5A14",
"i  c #56661B",
"p  c #587116",
"a  c #697D16",
"s  c #657B1B",
"d  c #4E4320",
"f  c #655428",
"g  c #453F41",
"h  c #48464C",
"j  c #504F4E",
"k  c #545255",
"l  c #52525D",
"z  c #7C4947",
"x  c #615C6D",
"c  c #6C7279",
"v  c #802F2C",
"b  c #8B3632",
"n  c #993C35",
"m  c #865529",
"M  c #894439",
"N  c #9A4C3C",
"B  c #B1473F",
"V  c #964C45",
"C  c #9E5142",
"Z  c #905152",
"A  c #B44D40",
"S  c #A75646",
"D  c #B45C4B",
"F  c #BB5E4D",
"G  c #AA555B",
"H  c #BB604E",
"J  c #AB6360",
"K  c #BD6B67",
"L  c #C75C4A",
"P  c #CC604E",
"I  c #C36352",
"U  c #C86753",
"Y  c #CF6B57",
"T  c #D06B57",
"R  c #D36D59",
"E  c #DA6E5A",
"W  c #D7705A",
"Q  c #DC725C",
"!  c #E2755F",
"~  c #C76864",
"^  c #C97172",
"/  c #D47674",
"(  c #EA7961",
")  c #ED716E",
"_  c #6C831C",
"`  c #738919",
"'  c #758B1B",
"]  c #798E1B",
"[  c #7C931C",
"{  c #7E9818",
"}  c #6D8322",
"|  c #748A23",
" . c #748925",
".. c #798C24",
"X. c #7D9324",
"o. c #7F942A",
"O. c #849D16",
"+. c #81951D",
"@. c #849C1D",
"#. c #889E1E",
"$. c #85A11D",
"%. c #8BA31E",
"&. c #8EA81D",
"*. c #92AB1E",
"=. c #9AB41E",
"-. c #829623",
";. c #849C23",
":. c #899E24",
">. c #81952B",
",. c #859B2B",
"<. c #899E2A",
"1. c #839633",
"2. c #859A31",
"3. c #899D32",
"4. c #939D31",
"5. c #87A123",
"6. c #8CA324",
"7. c #8EA923",
"8. c #87A02A",
"9. c #8DA32B",
"0. c #8FA92C",
"q. c #90A625",
"w. c #93AC25",
"e. c #99AF25",
"r. c #91A62B",
"t. c #94AB2B",
"y. c #98AE2C",
"u. c #96B225",
"i. c #9AB325",
"p. c #9DB925",
"a. c #96B02B",
"s. c #9BB32C",
"d. c #9DB92A",
"f. c #8DA332",
"g. c #8AA236",
"h. c #92A631",
"j. c #95AB33",
"k. c #99AE33",
"l. c #92A538",
"z. c #95AB3A",
"x. c #9AAE3A",
"c. c #97B032",
"v. c #9CB333",
"b. c #9EB932",
"n. c #9DB33A",
"m. c #A1B925",
"M. c #A0B72D",
"N. c #A2BB2D",
"B. c #A1B634",
"V. c #A4BB34",
"C. c #A8BF34",
"Z. c #A1B63A",
"A. c #A4BB3B",
"S. c #A9BE3C",
"D. c #A6C025",
"F. c #A6C12D",
"G. c #A9C12E",
"H. c #A6C133",
"J. c #ABC334",
"K. c #A7C13C",
"L. c #ACC33B",
"P. c #B0C738",
"I. c #B1C93E",
"U. c #B7D03D",
"Y. c #98AE40",
"T. c #A0B541",
"R. c #A4BA40",
"E. c #A9BD44",
"W. c #E1837F",
"Q. c #ACC144",
"!. c #AFC64E",
"~. c #B1C642",
"^. c #B2C64C",
"/. c #7D7887",
"(. c #7E878F",
"). c #908C98",
"_. c #928AA9",
"`. c #EA8684",
"'. c #EF8886",
"]. c #F58B89",
"[. c #FA8E8A",
"{. c #FF938E",
"}. c #FF9792",
"|. c #FF9A93",
" X c #FFA39C",
".X c #C8C2D5",
"XX c #D3CBE2",
"oX c #D5D1E2",
"OX c #E4DEED",
"+X c #E5E0EE",
"@X c #E9E4F3",
"#X c #EBE6F5",
"$X c #F2EDFB",
"%X c #F6F1FE",
"&X c #FAF5FF",
/* pixels */
"@.u.i.*.p.v.V.N.d.u.V.a.b.n.a.5.j.5.0.L.a.j.2.a.%.5.f.v.5.S.@.[ X.;.f.j.O.{ t.-.9.z.v.7.7.0.5.n.n.o.",
"d.N.C.J.y.a.G.&.d.7.0.9.R.c.V.c.0.u.b.u.$.&.5.j.u.u.t.8.Z.w.c.n.k.Z.y.r.#.s.J.N.j.n.0.7.b.5.;.w.0.0.",
"6.w.s.P.v.<.d.N.a.0.5.R.c.c.a.5.a.u.[ c.r.7.a.7.5.n.t.v.S.L.S.k.b.y.q.H.S.C.=.i.b.K.v.c.@.[ f.a.5.g.",
"s.y.q.i.p.d.6.s.a.o.z.a.u.c.n.0.b.c.*.u.w.v.L.<.,.Q.b.S.k.9.v.r.q.N.C.v.d.6.k.8.A.9.o.t.5.7.a.n.R.o.",
"b.c.t.S.v.V.d.c.j.n.z.F.u.d.$.a.n.5.9.r.w.V.w.t.x.v.y.<.v.a.v.t.I.s.B.] 9.0.X.g.c.c.n.n.;.;.;.z.f.g.",
"d.w.V.I.w.5.5.8.c.v.8.' 0.t.7.c.o.f.,.0.k.b.k.j.z.Z.S.j.w.J.x.c.y.t.<.j.u.u.u.7.a.j.h.z.<.g.g.f.| c.",
"v.U.&.7.a.f.c.A.b.0.9.0.<.o.8.n.n.o.5.6.0.9.;.;.c.k.<.k.Z.6.q.c.z.d.t.n.H.d.5.*.t.n.6.0.T.Y.f.0.7.7.",
"w.f.a.5.0.K.!.j.s.8.j.b.,.X.w.b.5.5.a.H.<.b.x.E.A.t.I.s.k.z.V.y.t.7.u.0.;.X.9.t.6.<.a.c.R.0.o.s.c.9.",
"F.f.&.$.7.a.7.d.8.X.H.0.r.n.a.w.X.j.<.k.:.9.<.A.M.S.s.y.h.Z.w.S.B.s.s.t.c.w.a.a.7.M.j.w.y.5.0.b.w.o.",
"u.b.p.&.7.F.*.a.7.c.w.0.n.5.*.d.w.q.:.r.k.| x.v.Z.t.9.r.w.s.j.k.w.y.Z.,.0.u.5.5.w.:.e.a.A.0.a.7.7.l.",
"b.9.*.p.a.$.u.H.V.y.s.H.w.s.9.w.7.w.d.M.6.k.r.B.j.Z.S.Z.t.v.v.r.t.:.d.a.7.u.0.c.t.t.a.;.5.8.{ a.5.5.",
"5.;.d.{ o.5.5.d.q.7.7.L.V.i.8.8.7.b.t.t.V.w.k.A.e.C.w.u.a.r.8.f.<.y.a.0.| ,.,.5.r.@.o.h.' _ 9.9.9.c.",
"9.t.K.{ { 7.u.{ &.a.0.d.J.X.i.F.6.%.r.7.q.n.Z.s.a.i * d i g.r.t.u.%.7.5.b.u.8.7.>.<.z.j.0.a.0.g.' 5.",
"s.5.5.&.d.d.p.*.;.8.p.X.0.7.w.s.v.5.q.q.y.r.y.:.$ X '.].G - u 9.c.7.5.0.X.X.0.5.f.Z.0.6.a.b.;.X.8.8.",
"u.d.7.a.7.7.7.0.8.8.w.u.X.a.w.6.v.t.a.w.6.t.9.@ 8 4 ].|.|.[.Z + _ X.5.5.] [ ,.;.X.{ 0.7.n.b.;.[ 0.u.",
"d.b.5.5.[ { 0.o.8.s.a.w.@.p.r.8.i.w.%.:.v.@.@ M ( O K |.].}. X^ o _ c.5.a.5.5.n.0.,.8.;.X.0.H.L.7.X.",
"*.u.w.t.7.6.:.8.6.u.t.f.$.O.1.n.M.w.:.6.%.# M Q Q N 6 |.|.J 8 W.`.O } 9.@.;.;.9.n.2.a 9.9.9.,.f.X.0.",
"w.8.a.%.w.s.q.w.5.X.a.5.c.X.1.r.w.v.:.#.9 8 ( Y Y Q < Z  X5 c : K '.o p ..;.s.9.f.7.t.c.#.h.-.f.>.y.",
";...y.v.V.6.s.N.&.9.a.c.8.6.j.9.-.V.G.s < Q C H R R I O W.~ l oXg / / f Z.8.[ r.<.a.;.;.w.<.w.N.,.+.",
"w.v.N.p.w.i.N.v.7.V.0.` 8.a.t.d.s.9.;.& I Q S U R R Q C * }.Z k (.5  X~ y d.w.Z.6.X.<.v.9.f.t.q.9.v.",
"C.i.D.%.:.w.Z.i.q.6.j.Q.j.B.s.q.i.H.0 8 W U Q Q W R R Q M - {.K - z }.[.< | s.6.q.:.y.h.q.V.a.y.M.J.",
"S.i.t.9.y.d.J.e.s.6.w.5.d.N.w. .;.[ & U S S Q S H W R Y Q M = `.|.[.[.|.G $ s.[ :.#.w.k.;.-.t.y.5.y.",
"i.p.w.f.p.i.s.N.V.0.a.w.w.y.e.r.C._ 3 Q Y R R N I W R R R Q N O J }.{.[.) < 6.G.q.7.&.r.E.v.r.9.6.t.",
"J.V.H.r.d.P.q.F.u.y.v.V.s.@.M.w.d.4.U W R R R Q W R R R R Y Q H < 3 U ) ) 3 %.y.s.6.y.M.v.d.Z.q.%.#.",
"6.>.e.q.8.$.0.&.$.-.w.N.d.t.w.2.a.u V Q Y R R Y R R Y R R R Y W E M > , > % w.<.r.n.y.*.r.w.] -.t.s.",
"j.z.s.C.j.9.v.w.d.q.y.b.w.6.j.s j.u b ! Y R R R R R R R Y R R R P E L 6   -.t.q.:.,.j.9.s.q.c.:.6.q.",
"S.B.y.6.N.C.V.5.y.r.j.h.6...;.` n._ 2 Q Y R R R R R R R R R Y Q S N n . X.B.4.-.h.<.B.v.r.v.i.i.v.y.",
"h.,.r.x.&.#.L.>.] C.8.9.w.5.r.l.9.$.* H W R R R R R R R R R R U L n . s B.-.` Z.v.B.6.6.t.c.s.s.q.x.",
"E.t.v.e.J.r.w.l.k.s.z.0.6...] %.h.V.9 > ( R R R E E T T R R U L v . | B.r.r.h.y.<.X.-.<.f.:.a.C.y.@.",
"y.B.y.i.y.M.M.y.B.s.:.s.%.t.J.B.v.r j l 1 ! W R D F E T T L A , @ ..k.z.r.3.r.d.h.9.v.v.V.V.6.V.L.C.",
"y.B.e.i.:.r.y.C.:.;.q.t.v._ e r 0 h +X@Xk < L ! D F E P B n m t 9.s.s.e.h.k.B.v.w.y.t.e.V.w.V.t.r.M.",
"C.M.e.s.B.A.B.M.j.j.h.B.a ; )./.c @X+XXXx $ * , 7 b 7 , O t #.5.t.j.V.s.q.w.q.+.L.h.h.B.e.y.y.t.Z.I.",
"N.B.B.r.9.w.q.w.a.9.;.:.w .X&X%X%XOXXXx % B.%.i t q t u -.N.q.y.+.,.B.e.C.6.y.4.y.r.<.r.e.q.w.M.N.m.",
"A.S.k.q.C.r.v.v.8.h.V.' ; #X&X#XOX#X/.$ B.-.e.B.v.y.V.V.C.C.&.S.k.4.A.k.r.r.y.y.B.B.4.r.V.s.q.q.M.B.",
"C.M.e.m.i.t.0.<.s.S.6.y.i h /.).@X$X/.y y.k.y.] -.B.w.+.4.k.y.e.r.-.:.4.x.y.s.B.V.M.e.e.M.C.C.q.-.B.",
"*.y.:.r.q.d.j.:.t.t.l.l.k.` @ k %XOX_.q y.:.y.-.-.,.s.q.-.4.:.S.r.B.k.h.:.V.Z.4.B.#.s.e.B.:.y.B.n.E.",
"=.J.y.t.V.N.i.s.,.n.l.f.v.L.;.: XXXX).| C.y.k.Z.k.y.#.h.r.B.#.+.r.r.y.x.y.y.k.<.y.y.C.C.C.v.V.B.Q.z.",
"s.;.] z.8.i.p.v.Y.k.Y.<.r.A.r.y ; 5 1.Q.V.M.y.C.y.B.:.+.S.q.B.y.k.v.y.+.r.:.V.V.C.S.B.S.v.y.B.Z.S.6.",
"B.z.h.+.k.0.r.x.;.q.k.[ >.5.w.L.+.+.y.6.s.y.r.y.M.+.B.C.r.+.k.B.B.:.B.t.k.4.C.B.S.M.B.B.k.^.E.j.d.V.",
"r.y.d.6.@.r.Q.k.:.r.8.,.q.u.s.r.q.M.k.#.B.y.k.r.B.V.r.e.6.k.,.y.q.r.B.I.y.y.M.y.k.:.k.S.Z.^.A.V.w.7.",
"' q.y.s.y.y.B.B.q.+.-.X.M.i.d.h.q.V.B.Z.B.#.s.<.:.N.C.#.B.<.:.4.y.B.e.y.B.6.S.S.y.y.A.B.n.h.s.s.6.t.",
"f.8.:.-.:.y.y.#.w.t.x.q.s.s.v.k.:.B.w.q.r.y.r.Z.y.N.M.4.B.:.V.k.V.B.S.B.V.B.t.r.t.A.r.h.3.Z.s.q.w.A.",
"B.V.S.t.:.S.y.:.:.k.t.t.6.@.-.6.B.y.B.:.k.r.r.j.r.%.y.S.k.r.y.x.A.s.y.r.V.S.r.Z.l.j.q.:.;.8.t.M.5.7.",
"w.V.e.M.q.q.:.t.r.:.q.%.q.y.y.;.j.#.e.t.Z.] :.] B.C.y.#.y.B.q.<.E.C.y.B.N.y.V.k.x.x.y.s.y.w.8.r.$.0.",
"-.y.e.y.y.r.y.y.r.6.8.t.<.0.t.9.>.B.y.y.q.s.4.y.%.#.:.4.e.q.k.S.B.B.C.C.N.v.d.h.t.s.r.0.6.w.q.;.0.f.",
"N.N.k.<.9.M.q.M.t.n.B.v.<.X.6.y.<.r.O.B.B.M.y.r.B.e.B.y.w.y.B.S.h.-.v.q.e.u. .q.i.i.&.J.i.i.N.Z.9.9.",
"y.q.#.y.y.C.M.A.L.j.7.s.Z.t.j.v.v.@.y.t.y.;.v.k.y.y.#.y.y.4.k.y.k.e.4.y.y.j.a.k.:.%.v.N.w.m.G.b.;.w.",
"+.:.q.s.B.y.N.e.V.<.v.6.:.C.9.+.%.h.q.6.t.r.M.v.r.y.q.M.q.M.e.q.y.S.r.:.V.d.e.w.q.d.r.-.:.G.d.w.7.u.",
"k.M.A.y.y.:.m.y.M.m.M.9.e.:.4.9.C.y.k.q.k.S.9.r.k.B.y.y.N.V.+.y.C.:.*.V.s.m.S.y.N.N.M.&.M.t.e.p.d.8.",
"q.r.k.A.:.r.m.+.4.m.k.V.*.B.:.+.M.:.s.k.q.q.<.s.M.s.k.k.y.Z.B.k.B.E.~.C.r.e.n.y.M.C.y.N.y.q.6.b.B.6."
};
