/* XPM */
static char *result[] = {
/* columns rows colors chars-per-pixel */
"50 50 226 2 ",
"   c #060408",
".  c #0E0A0D",
"X  c #110C0F",
"o  c #0A110F",
"O  c #18160F",
"+  c #0E0B11",
"@  c #130D12",
"#  c #140A1A",
"$  c #0C1414",
"%  c #141214",
"&  c #191415",
"*  c #1B1715",
"=  c #131A14",
"-  c #1B151A",
";  c #151B1A",
":  c #1B1D1C",
">  c #201E13",
",  c #211A1E",
"<  c #1A221A",
"1  c #2F300F",
"2  c #272A17",
"3  c #363717",
"4  c #181E22",
"5  c #251C23",
"6  c #1C2423",
"7  c #1E2827",
"8  c #222524",
"9  c #2A2325",
"0  c #212926",
"q  c #242C2A",
"w  c #2D2828",
"e  c #2B2C2B",
"r  c #312D23",
"t  c #312B2D",
"y  c #29312A",
"u  c #2B322F",
"i  c #38352C",
"p  c #292D32",
"a  c #332E31",
"s  c #2C3533",
"d  c #2A3334",
"f  c #323333",
"g  c #323A36",
"h  c #353639",
"j  c #343C3B",
"k  c #3B3C3B",
"l  c #451F0B",
"z  c #512D14",
"x  c #6C330C",
"c  c #713F18",
"v  c #413B2B",
"b  c #423C36",
"n  c #6B3C23",
"m  c #3F451B",
"M  c #37402D",
"N  c #37403D",
"B  c #3A423D",
"V  c #47461C",
"C  c #4B551B",
"Z  c #52531D",
"A  c #635B1C",
"S  c #59681B",
"D  c #73721C",
"F  c #4A4E2F",
"G  c #595326",
"H  c #474437",
"J  c #554434",
"K  c #555A38",
"L  c #7D4A2B",
"P  c #65512C",
"I  c #586623",
"U  c #5B6633",
"Y  c #626E25",
"T  c #7A6C26",
"R  c #667629",
"E  c #756735",
"W  c #726F30",
"Q  c #677338",
"!  c #363D42",
"~  c #4C3E4A",
"^  c #3B4343",
"/  c #3D4746",
"(  c #434544",
")  c #424945",
"_  c #444648",
"`  c #454C4A",
"'  c #4B4C4C",
"]  c #554C44",
"[  c #495347",
"{  c #4A5445",
"}  c #4D514D",
"|  c #545946",
" . c #4C4E50",
".. c #465757",
"X. c #4D5351",
"o. c #535554",
"O. c #545955",
"+. c #595856",
"@. c #555A5A",
"#. c #5A5C5B",
"$. c #735743",
"%. c #5B6645",
"&. c #626A46",
"*. c #746E4E",
"=. c #687446",
"-. c #75735A",
";. c #6A566F",
":. c #586A6D",
">. c #71736B",
",. c #93562F",
"<. c #867B2C",
"1. c #877A36",
"2. c #AB6435",
"3. c #B1793C",
"4. c #8A6B48",
"5. c #89754A",
"6. c #A87949",
"7. c #8E7970",
"8. c #6D821F",
"9. c #768B1A",
"0. c #779318",
"q. c #7B931D",
"w. c #7A8E24",
"e. c #778728",
"r. c #7D9423",
"t. c #7F9922",
"y. c #7D932B",
"u. c #758537",
"i. c #798742",
"p. c #7C8757",
"a. c #758275",
"s. c #80951D",
"d. c #839C1C",
"f. c #889F1F",
"g. c #8BA31D",
"h. c #89A51D",
"j. c #92AC1E",
"k. c #97B31D",
"l. c #819624",
"z. c #849C24",
"x. c #899E25",
"c. c #81952A",
"v. c #859B2A",
"b. c #899E2A",
"n. c #8A8536",
"m. c #819431",
"M. c #869A31",
"N. c #8A9E33",
"B. c #899A3C",
"V. c #9A9032",
"C. c #87A124",
"Z. c #8CA324",
"A. c #8EA924",
"S. c #8CA32A",
"D. c #8EA82A",
"F. c #91A725",
"G. c #93AB25",
"H. c #99AE26",
"J. c #91A62B",
"K. c #94AB2B",
"L. c #99AF2C",
"P. c #96B124",
"I. c #9BB325",
"U. c #9DB925",
"Y. c #96B12C",
"T. c #9BB32C",
"R. c #9EB92B",
"E. c #8CA232",
"W. c #8AA03A",
"Q. c #91A533",
"!. c #95AB32",
"~. c #99AE33",
"^. c #92A53A",
"/. c #96AC3A",
"(. c #99AD39",
"). c #99B333",
"_. c #9CB333",
"`. c #9EB933",
"'. c #9DB33B",
"]. c #A2BB25",
"[. c #A0B62E",
"{. c #A2BB2C",
"}. c #B2A639",
"|. c #A1B733",
" X c #A3BB33",
".X c #A8BE34",
"XX c #A1B63A",
"oX c #A4BB3A",
"OX c #A9BE3D",
"+X c #A7C32E",
"@X c #AAC333",
"#X c #A9C534",
"$X c #ABC33B",
"%X c #B0C73A",
"&X c #858343",
"*X c #899646",
"=X c #888C54",
"-X c #959457",
";X c #AB8F4E",
":X c #9BB241",
">X c #B0AC4C",
",X c #A2B442",
"<X c #A5BA42",
"1X c #8D8A6C",
"2X c #AB9A65",
"3X c #ADAC77",
"4X c #C99052",
"5X c #D1AA64",
"6X c #ABC347",
"7X c #B1C746",
"8X c #C0C068",
"9X c #292A85",
"0X c #3F43BA",
"qX c #4E56C0",
"wX c #857480",
"eX c #7A8985",
"rX c #94948D",
"tX c #B6A891",
"yX c #9CA5A1",
"uX c #AAB2AC",
"iX c #C6BF82",
"pX c #D3CD85",
"aX c #D7D4B0",
"sX c #F2EDB5",
"dX c #E3DFC1",
"fX c #F3F3D6",
/* pixels */
"K.D.Z.A.C.T._.S.T.D.D.0.D.C.#XD.Y.P.Y.Y.Y.C.j.D./.`.T.Z.x.C.A.).~.|._.P.G.v.M.C.Y.C.x.t.Y.C.y.`.R.D.",
"Y.h.A.T.P.R.J.U.R.q.#X$X).G.`.Y.D.0.C.6XQ.v.D.).A.A.T.T.Y.`.A.S.x.!.(.U.d.z.r.z.v.D.A.D.!.t.E.D.D.!.",
"G.G. XI.T.Y.#XH.+XG.`.D.oX'.`.D.!.Y.Y.U.h.D.y.G.C.&X*XJ.~.K.z.x.S.!.(.d.d.@XY.Q.:X`.Z.Y.C.D.`.!.t.E.",
"I.T.T.%X%XS.T.{.A.T.Z.).:XD.).A.A.P.D.Y.A.A.G.j.i.wX&.{. XXX_.oXoXK.L.`.R.I.I.`.`.G.D.S.r.S.A.t.:XQ.",
"I.F.G.P.{.G.D.A.U.t.W.).`.`.'.S.!.`.d.T.G.G.'.1X1XtX:.=X^.oX|.S.G.T.oXoXT.`.C.#X'.S.~.g.C.!.`./.y.C.",
"L.$XL.L..X+X`.K.T.Q.:X`.P.D.P.`.$XC._.<XB.p.yXeX>.7.] @.>.c.L.oX.X#XF.A.z.v.E.'.v.E.Q.x.t.S.<X/.y.S.",
"_.G.G.7X`.C.T.Z.W.`.Q.C.D.Y.h.K.S.C.8XsX*.] uX:.rXwX;...rX>.%.'.R.Z.S.D.Y.T.S.G.K.`./.v.v.E.C.y.E.C.",
"{. X+XG.`.S.z.).`.A.D.t.z.S.S.).E.*XdXfX<.Z -.~ 0XqX0X9X:.yX/ H *XY.K.$XU.A.A.Y.'.C.!.:X/./.S.D.A.).",
"I.D._.A.S.).6X/.U.D.C.).b.y.C.`.Y.U iX1.D T -.tXiX-X7.>.P :.>.@.' Q ^.x.q.A.K.D.x._.(.:X!.v.Y.).D.D.",
"U.Y.t.k.C.P.).).D.S.).).S.E.G.G.v.Z   A n.3 =X;X5.>X>X-X5.] ..eXeX^ | *Xh.Y.Y.h.L.L.A.L.C.A.`.D.y.e.",
"{.G.oXj.A.R.U.h.G.S.~.D.OXD.j.R._.W G T E 1.W <.aXpXsXfX1XE 5.| a.:.s ..N.h.q.Y.Z.G._.`.C.Y.P.D.<Xr.",
"`.`.A.k.Y.A.A.R.{._.H. XG.Y.Z.I.h.-XsX;X6.;XG G 1X5.&XaXtXr ;X;X-.X.g j | W.).Y.F.G.C.D.E.C.P.t.t.E.",
"z.z.A.k.q.S.0.Y.P.Z.h.$X$XU.f.-X*X2XtXn.;X2X<.V V A T 1 A 1 6.5X5.g d g ^ %.S.D.S.w.b.8.w.D.D.D.!.A.",
"S.S.).Y.0.q.U.C.q.P.S.`.#Xb.(.3XtX5X5.3 T 1.;XA V.}.A <.<.T 4X3.z 7 0 < j / u.v.v.!.~.Z.K.!.C.w.C.R.",
"`.A.Z.C.U.+XU.k.h.v.U.C.u.=.>.rXtX7.4X5.| i *.n.z A <.V.T P n t < 7 s = 7 ^ { W.oXD.Z.Y.`.z.r.D.C.E.",
"H.P.U.A.Y.C.A.A.D.C.A.K.{ ` #.7.7.$.P H ^ , J 4.E V <.A v 8 a t 7 u B M $ s ^ R d.D.D.oXD.C.q.D.).W.",
"A.R.).d.q.0.L.z.t.Y.Y.W.^ / ^ / #.e 6 ^ e q $.,.L c x z r b a f 8 g s | < 6 ^ %.D.t.t.t.F.%XoXC.q.z.",
"T.j.Y.D.D.D.z.S.t.A.R.M.B s j ; , q B B s k $.L n c z l v +.a f 8 s d F M 6 N O.E.8.D.E.Q.S.S.v.~.l.",
"#Xx.x.H.F.U.G.T.A.t.!.Y.R < = C K g / f ~ ( 6.2.2.2.,.x J @.k a q 8 u N q o d / Z.Y.!.h.J.b.^.b.G.y.",
" Xr.b.T. XK.G.[.j.K.D.D.A.r.y.=.g B / e ' ' $.L L ,.L l J #.! f y < g s B r K u.G.z.C.A.r.G.H.v.h.'.",
"g.[. X].G.G.[.[.T.`.).q.D.R.u.d / X.f g ' ' a + + @ .   ! #._ a f < j u B %.|.j.y.S.XXJ.(.G.Z.J.$XE.",
" X{.k.P.z.H.|.T.A.F.D.oXoX^.[ N O.) y k  .' t @ X : &   f #._ f h 4 ^ B g / Q g.C.L.Q.Z.L.T._.[.R.v.",
"(.U.I.S._.I. X XU.L.K.x.U.=.^ X.O.d f h o.} w @ @ t & @ f #._ k g ; N B B ^ { c.f.F.Z.Q.z.S.K.F.z.K.",
"U.{. X!.G.{.G.{.#XY.K.T.M.B / ` / 6 / f o.' 5 X 8 k % @ f #.( k k < g N N B / M.j.j.~.7XT.~.F.Z.D.Y.",
"@X_.[.F.J. XF.P.k.S.T.T.K ` / } s u ' s o.o.5 . f _ & @ e #._ H k 6 j s N j ^ y.~.L.T.D.Y.J.S.H.g.|.",
"T.w.N.].~.q.S.K.Z.C.h.N./ ^ ^ ) 8 h ' a o.' - . b ' - @ w @._ ( k 6 ! y B d } v.~.L.f.H.T.v.9.L.`.|.",
" X<X.Xg. XY.oXY.T.L.L.*X` s X.g : _ ' e ' ' - @ _ o., @ q o._ _ k : ^ p ^ g { y.w.L._.J.J.T.I.J.G.L.",
"x.K.!.J.L.G..XD.t.T.Y.u.j ` ` d 8 ) ' w ' ' & @ ' @.5 @ e o._ ' g ; ^ g j / ! *X{.L.J.Y.oXP.H._.|.T.",
"(.'.l._.L.G.F.~.v.L.).%.p X.j q q _ } e _ ( X * ' @.a X , } _ } g 4 ^ j s ` p i.b.l.x.b.x. X|.f.b.U.",
"L._.L.].T.%XF.|.|. XN.) N ` j 6 w _ o.f k _ & & ~ o.b X % _ _ } f 6 ! g y / s %.S.J.!.(.L.F.$X$XK.|.",
"x.|. XI.G.s.|.H.Y.z.B.N ` ^ j ; e ( +.g f ( - & _ ( ~ @ . k } } y 7 / / q ^ p &.H.H.T.$XH._.L.L.{.L.",
"~.[.T.H.|.(.|.|.).S.W.N ` j s = t ( +.( f h - * X.B b ,   e o.} 6 7 ^ N 7 N 7 *XL.b.|.G.L.|.x.|.$X.X",
"]..X[.K.Z.S.L.G.L.L.y._ / j q ; f k #.' f a & - o._ e , X w ' _ < q ^ N 0 ^ s M._.(.(.F.F.G.|.+X#XT.",
"_.XXXXJ.T.T.Z._.G.Q.).%.j j 8 = t i ( o.( a & : @.' f , X 8 o.H ; p j ^ 6 ! U T.!.x.F.|.F.G.H.{.L./.",
"OX.X[.I.{.L.F.x.K.|.Y.Q ! ^ 6 2 m.e.I v ( a @ 9 @.+.b 5 X , } h ; s j / q B Q.@XL.F.H.[.{.|.x.F.oXv.",
"g.I.x.F.L.F.`.S.S.L.N.O.j j 6 S G.|. Xv.U t X : +.@.o.5 % @ K R 6 j j / 8 { N.T.F.[.H.|.S.|._.XXXX'.",
"k.]. XJ._. XH.R.c.XXW.` j j 6 e.T.XXN.L.$XV . . h _ _ w @ > 9.S 7 N s ^ 7 %.c.F.H.%X$X|.K.~.OX<X'.C.",
"].[.w.b.S.G.].{.(.(./.N 7 4 < S.F.x.J.<X!.r + 1 y.W Y r # > S.2 7 j N N q i..XoXOX|.OX|.|. XXXOXF.Z.",
"~.~.Q.x.b.L.Z.(.v.b._.Y $ o I #XZ.x.L.F.K & X 3 I.F.OXv @ O c.2 d g N ^ %.@X|.OX{.[.XX|.7XOX_.[.R.Z.",
"~.K.[.L.f.x.<XoXx.S.S.N.8.8.Y.S.x.T.[.e.5 &   1 oXK.F.H # O Y = 7 d ^ i.S.`._._.Z.~.XX,X7XOX.XF.A.C.",
"x.q.L.F.T.K.L..XH.s.x.c.[.R.{.J.D.oXm.K K ,   m T.{.|.i - . C 2 o 6 ] _.L.XXOXK.~.XXXX(.Q.I.H.J.D.D.",
"XXN.J.l.s.F.|.x.F.K.(.J.L.H._._.z.H # # , #   Y {.[.Q.v 5 . C G o s i..X|.K.L.J._.F.!.M.oXT.G.~.$XD.",
"{. X X XF._. XJ.Z.K.K.H.G.d.z.Z.E.G V V V Z 3 Y L.H.(.9 . + * N.B.y.J.|.OXK.L.(.!.K.x.x.x.L.L.Z.D.A.",
"f.L.[.I. Xx.x.J.J.Z.J.H.Z.~.Y.z.!.F.U.H.OXF.J.l..X[.l.2 i v > B.7XH.~..XL..X'.'.'.K.H.K._.Z.z.K.!.`.",
"(.x.L.H.J.~.[.H.J.S.Q.K.v.S.S.Z.w.~.F.[.F.[.x.L.d.J.F.*Xb v E  XK._..X{.{.L.Z.G.I.F.~.J.F.G.D.b.C.`.",
"[..XH.Q.l.L.H.L.~.L.~._.Q.l.K._.(.F.d. X XK.!.J.|.H.'.K , , , u.l.L.J.F.G.r.S.{.j.H.+X{.I. X<Xt.S.Z.",
"J.x.x.H.L..X.XT. X|.x.U.(. XQ.x.J.f.L.S.x.z.|.J.F.[.W 5 , , , 3 ~.!.b..XS.L.G.r.Z.|.H.G.{.#X`.Z.G.G.",
"b.z.F.[.|.L.H.[.[.~.[.x.x.U.Q.s.F.(.K.J.~._.H.(.J.[.l.r O * & D .XK.f.|.{.L.U.P.T.F.z.G.+XI.P.A.I.D.",
"L.L.|.|.[.s.[.F.~.].T.J.].g.c.J..XJ.L.J.[.XXx.[.[..X.X~.E.e.l.|.|.L.%XL.[.XXK.H.+X{.U. XZ.G.+XJ.l.t.",
"].S.Q.E.J.[.H.H.V.x.{.[.H.|.H.x.F.[.L.J.f.L.J.|.H.c.b.x.J.%X{.b.XXXXL.L.H.J._._.T.c.T.G.T.C.D.[.L.F."
};
