/* XPM */
static char *result[] = {
/* columns rows colors chars-per-pixel */
"50 50 197 2 ",
"   c #667C16",
".  c #825345",
"X  c #875A48",
"o  c #8C5D4B",
"O  c #905F4E",
"+  c #93624E",
"@  c #98744B",
"#  c #956552",
"$  c #996755",
"%  c #976852",
"&  c #996952",
"*  c #9F6E59",
"=  c #9E7053",
"-  c #A06F5A",
";  c #A67753",
":  c #A37454",
">  c #AE7B51",
",  c #A2725B",
"<  c #A67A5D",
"1  c #AA7D5B",
"2  c #A67661",
"3  c #A97763",
"4  c #AA7A63",
"5  c #B07D69",
"6  c #748C1C",
"7  c #789718",
"8  c #7C951D",
"9  c #7C9B1C",
"0  c #778B24",
"q  c #778A2A",
"w  c #7E9522",
"e  c #7F9429",
"r  c #879E19",
"t  c #849C1C",
"y  c #85A21E",
"u  c #8AA41E",
"i  c #8DAA1D",
"p  c #92AE1D",
"a  c #9CB61F",
"s  c #819724",
"d  c #889326",
"f  c #839B24",
"g  c #8A9F24",
"h  c #81962A",
"j  c #849B2A",
"k  c #899D2C",
"l  c #93873A",
"z  c #96893A",
"x  c #8C9B31",
"c  c #9A983D",
"v  c #A19B3C",
"b  c #86A423",
"n  c #8CA424",
"m  c #8EAB24",
"M  c #86A129",
"N  c #8DA42B",
"B  c #8DAA2A",
"V  c #91A722",
"C  c #93AC24",
"Z  c #98AE27",
"A  c #91A62A",
"S  c #9CA02A",
"D  c #93AB2B",
"F  c #99AE2C",
"G  c #94B126",
"H  c #9AB225",
"J  c #9DB926",
"K  c #96B12C",
"L  c #9BB32C",
"P  c #9DB92A",
"I  c #8CA332",
"U  c #8EA538",
"Y  c #91A433",
"T  c #95AC32",
"R  c #99AD33",
"E  c #98AE3B",
"W  c #9CB432",
"Q  c #9AB435",
"!  c #9FB833",
"~  c #9DB33A",
"^  c #A1BB25",
"/  c #A4B628",
"(  c #A0B62E",
")  c #A2BB2C",
"_  c #A3AD3A",
"`  c #B1AD35",
"'  c #A2B634",
"]  c #ABB337",
"[  c #A3BB33",
"{  c #AEBC34",
"}  c #A2B63B",
"|  c #A4BB3B",
" . c #A9BD3C",
".. c #B8B537",
"X. c #BBB43C",
"o. c #C5B73B",
"O. c #D9B63F",
"+. c #A4C235",
"@. c #ABC334",
"#. c #ACC33C",
"$. c #AECA3C",
"%. c #B1CB37",
"&. c #C4C03A",
"*. c #9F8054",
"=. c #9C9155",
"-. c #AB8356",
";. c #AB8259",
":. c #B48455",
">. c #B3865A",
",. c #B68959",
"<. c #BC945F",
"1. c #9FB542",
"2. c #A7B641",
"3. c #A9BE44",
"4. c #BCB442",
"5. c #BAB94A",
"6. c #AABF52",
"7. c #AD8161",
"8. c #B18264",
"9. c #BB8D64",
"0. c #BC9260",
"q. c #D39E4F",
"w. c #C3935C",
"e. c #CA955A",
"r. c #D39C51",
"t. c #C4BC43",
"y. c #CCB749",
"u. c #C5BE4A",
"i. c #CEA05C",
"p. c #D7A152",
"a. c #D9AB5D",
"s. c #CFBF5A",
"d. c #ECBD4A",
"f. c #FEBF4C",
"g. c #E6AF57",
"h. c #E8B559",
"j. c #C79964",
"k. c #C59A64",
"l. c #CCA364",
"z. c #C8A06E",
"x. c #CEAA6A",
"c. c #D6A863",
"v. c #D2AD6A",
"b. c #DDBB6E",
"n. c #D6B170",
"m. c #E1B262",
"M. c #EBBF63",
"N. c #E3BF74",
"B. c #ABC241",
"V. c #BACA45",
"C. c #AEC552",
"Z. c #B8C957",
"A. c #C6C046",
"S. c #CAC245",
"D. c #C5C44C",
"F. c #CAC449",
"G. c #D6C54E",
"H. c #CAC753",
"J. c #D1CC54",
"K. c #D4C95A",
"L. c #E3C54D",
"P. c #FEC24E",
"I. c #FFC94E",
"U. c #E9C656",
"Y. c #ECC95B",
"T. c #FEC251",
"R. c #F9C755",
"E. c #FFC956",
"W. c #F6CB5C",
"Q. c #FECA5B",
"!. c #FFD25C",
"~. c #E5CD65",
"^. c #F6C660",
"/. c #F6C962",
"(. c #FECE62",
"). c #E4D266",
"_. c #EBD367",
"`. c #E6D369",
"'. c #EBD66C",
"]. c #ECD96E",
"[. c #FFD164",
"{. c #F8D569",
"}. c #FED56C",
"|. c #FFD96E",
" X c #E5C473",
".X c #EFCE77",
"XX c #F5D573",
"oX c #FDD670",
"OX c #F2DA73",
"+X c #FEDA74",
"@X c #F4D578",
"#X c #F7D879",
"$X c #FEDE7C",
"%X c #FFE27E",
"&X c #FFE97F",
"*X c #FFE480",
"=X c #FFE982",
/* pixels */
"L n i K p ^ A L @.H C +.[ [ Q W B M 7 n V.u.s..XXX[.|.OX`.K.D.F t w g W W n n 9 f w I n y Q T f ~ m ",
"+.K K { J D [ ) i +.u D b B.~ ! B } G._.$X*X*X*X$XQ.oX*X%X*X%XOXK.E A Y g r [ @.L E ~ C D K f n Q T ",
"a Z Z / V.W I +.L G K N ~ E B K S.{.$X%X$X$X$X$X+X(.|.$X$X$X$X*X*X$X).] W [ ) H L ! Q W n t e T n f ",
"H a C n ^ ^ C n G i e I ! G  .Y.+X%X$X$X%X$X$X%X$X(.oX%X$X$X$X$X$X$X*X$XH.K [ D b $.N U D n B T ! U ",
"Q W | n [ [ J K L K U E P ..(.$X$X$X$X$X$X$X$X$X$X(.|.%X$X$X$X$X$X$X$X$X*XH.w j U F I T N w f T 1.U ",
"[ ! C [ #.D m K j Y | M ` T.$X$X$X%X%X$X$X&X&X%X#XW.XX%X&X&X$X$X$X*X$X$X%X+XG.A n D T ~ I k h I 0 j ",
"^ L %.H C Q j N | [ b ] W.Q.}.$X$X$X$X&X$X Xw.-.: + & 1 0.b.#X*X$X$X$X$X|.Q.+XJ.m Q K n E 1.U T b m ",
") m Q L f N ! C.R K T U.%X+X(.[.$X$X%Xb.1 + . O & X # # # # = l.$X$X$X|.(.|.$X$X5.b N W ~ ~ I f ! K ",
"L ) j m i b P P L N G.}.$X$X$X(.[.$Xk.. o , + , 1 & , 4 4 < & . ; .X+XQ.|.%X$X%XXXF F N F T 9 D W M ",
"@.H W P p D ) m b ] (.+X$X$X$X+X[.,.o o , 4 & , 3 & , 4 4 4 4 + o * h.|.$X$X$X$X*XJ.u F Q Z B K n K ",
"+.W F i J D n G ) L.oX$X$X$X$X%X<.o - & < 3 # , 3 & , 4 4 4 3 & * # & @X%X$X%X$X$X$X_ n n T N B D 7 ",
"N j w G y w n 9 { (.$X$X$X$X&Xv.O , 1 & , 3 # , 3 & , 3 4 4 4 & , 1 # >.%X%X$X$X$X*X5.6 N   e n A Q ",
"G n B | u 6 Z C t.}.$X$X$X%XXX: & 4 3 & , 3 - 1 3 & < 4 4 4 4 & , 4 , + v.*X$X$X$X$XOX} N B n E w w ",
"K L n B m P ) ^ U.|.$X$X$X&Xx.+ < 4 3 & < 4 3 4 2 $ , 4 4 4 3 & , 4 4 & ;.%X$X$X%X$X%X_ b Q K w j B ",
"L Z H C G m 9 F W.+X%X$X$X$X1 + - 3 < & , 4 4 4 < & , 4 4 4 4 & , 4 , # # N.%X$X$X$X*X2.B ! D 8 f K ",
"r L +.B 9 S o.G.(.}.|.}.}.{.c.,.+ < 3 & , 4 3 4 2 & , 4 4 4 1 & , 4 $ : q.M.|.}.}.|.|./.y.4.F $.L t ",
"H G Z D n o.E.(.(.(.(.(.Q.[.[.a.+ 2 3 & , 4 4 4 3 & , 4 4 4 4 & , 4 $ :.I.Q.(.(.(.(.(.(.[.Y.N N j h ",
"@.K g Z b ..T.P.T.T.T.T.T.P.I.r.# < 3 % , 4 4 4 3 & , 4 4 4 4 & , 4 $ :.P.P.T.T.T.f.T.f.T.d.N h N g ",
"@.A 0 T L { O.P.E.E.R.E.E.Q.g.; # < < & , 5 4 4 < & , 4 4 4 3 & , 4 = & r.P.E.Q.Q.E.E.Q.U.` N ) D h ",
"C p F ) ) i o.T.(.[.[.[.[.}.i.o , 3 3 & , 4 4 4 3 & , 4 4 4 3 & , 4 < # > P.Q.[.(.(.(.}.U.I A C n N ",
" .) H ^ V f o.T.f.f.f.f.f.I.p.# < 4 3 & - 4 4 4 2 O * 4 4 4 4 & , 4 3 $ :.P.f.P.f.f.f.f.d.W ) D F @.",
"} } H Z A K / L.Q.(.[.[.}.h.> # 1 3 < & , 4 4 3 4 9.7.3 4 4 4 & , 4 4 & = p.E.(.[.(.[.^.` h f F A A ",
"B H ) P k H n X.}.*X*X*X*Xx.O - 3 3 3 & , 5 4 , n.&X@X4 4 4 4 & , 4 3 3 + :.[.+X*X*X*X`.~ 3.F k V n ",
"F %.W [ D L +.t.(.$X+X#X&Xv.# 2 5 3 < & , 4 3 e.+X%X%Xh.4 4 4 & , 4 4 4 # :.(.|.$X+X*X_.W F [ W V C ",
" .V q A Z k 7 X.}.+X(.oX*Xv.O < 4 4 1 & , 2 e.I.{.*X$XE.g.4 4 $ , 4 3 1 $ :.[.+X(.}.*X`.C K t 6 w ' ",
"' W } L ) ' B u.}.+X(.|.*Xv.O 2 4 3 2 & , 4 W.g.9. Xz.j.!.9.2 & , 4 4 4 # :.[.|.[.oX*X`.F n A W g A ",
"' ' ' W N [ P A.[.+X(.oX&Xv.+ < 4 4 3 & - 8.[.c.2 2 2 4 [.k.2 $ , 4 4 4 # >.[.+X[.oX$X'.F R W H L T ",
"D R x N R V t t.}.+X(.oX*Xv.+ < 4 4 3 $ , 8.[.m.2 2 2 9.[.k.2 & , 4 4 4 $ :.[.+X[.oX*X_.N T F ) C A ",
" .} g W K { C X.|.+X(.oX*Xv.+ 3 4 4 4 & , 2 c.}.x.4 9./.(.7.3 $ , 4 4 3 # :.(.+X[.oX*X~.I f F L [ n ",
"H F #.H a Z C t.[.+X(.|.&Xv.+ , 4 4 3 & < 4 4 m.[.[.[./.9.2 4 & , 4 4 3 # :.[.oX[.oX*X'.W  .F F #.{ ",
"s A ' L L B I F.}.+X(.oX*Xv.+ < 4 4 3 & , 4 3 3 <.w.0.8.3 4 4 & , 4 4 4 # >.(.$X[.{.*X~.) L Z ' n R ",
"K @.) L L F Q F.[.+X(.oX*Xv.# < 4 4 < & , 4 4 4 , O * 4 4 4 2 & , 4 4 4 # :.(.+X[.|.*X.XF A L A L @.",
"H ( R R g A n X.}.+X(.}.*Xv.# < 4 4 3 & , 4 4 4 4 & , 4 4 4 4 & , 4 4 4 # >.[.+X(.|.*X`.A D V L [ ) ",
"( #.#.' H @.b 4.}.+X(.|.*Xx.O < 4 4 3 & , 4 4 7.2 & < 4 4 4 4 & , 4 4 4 # :.[.+X(.|.*X`.R ( F V r W ",
"A / Z V G Z m D.[.+X[.|.*Xv.+ , 7.4 2 & , 4 4 4 2 & , 4 4 4 4 & , 4 1 3 # :.[.oX(.|.*X~.( L [ ' g R ",
"C p H A B W P X.}.+XQ.+X*Xv.+ 3 4 4 2 & , 4 4 4 2 & , 4 4 4 4 & , 4 * , # :.[.+X[.oX*X'.[ D N )  .3.",
"( J ! B n W P &.}.+X(.oX=Xv.+ < 4 4 4 & , 4 4 4 3 & , 4 4 4 3 & , 3 & , # :.!.+X(.}.*X].#.L #.' 3.} ",
"A P f h x I i o.}.+X(.oX&Xv.# , 4 4 2 & , 4 2 4 < & , 4 4 4 4 & , 4 & = $ :.[.+X[.oX*X].3.'  .' W ' ",
"L ' W R t F N 4.[.+X(.oX*Xv.# , 4 4 4 & , 4 & , 3 & , 4 4 4 4 & , 4 & , $ :.[.+X[.oX*X'.R 3.Z.W K ^ ",
"h j n ' L n N u.[.$X}.+X*Xv.+ < 4 4 4 & , 4 & * 3 & , 4 4 4 4 & , 4 & , $ :.[.+XoX+X%X'. .3.' [ F g ",
"k j N g A F m t.}.$X*X$X*Xv.+ * * = * o & = o & * o # - * * - o & = o & # ,.[.+X*X$X*X'.E x R Z V [ ",
"@.~ D D A t B u.(.@X#X#X%Xx.# & & & & X # & X O & X + & % & & X O & X + # :.(.XX#X@X*X~.x A Q Z A B ",
"p ) ) ' L z , 7.5 8.8.8.8.5 < 3 2 3 3 2 2 2 3 4 < 3 3 1 < 3 1 3 2 2 2 3 1 3 7.8.5 8.8.8.7.@ f W K y ",
"n s ' C / @ - 4 3 4 4 4 4 4 4 4 5 7.4 4 4 4 7.4 4 4 4 5 4 4 4 4 4 7.5 4 4 4 4 4 4 4 4 4 4 5 c t w M ",
"R D F L A @ $ , , = , , , , - , , = , * , * , - , - , * - , - , , * * , , * * , , = , , , * E F T B ",
"R ( @.S k @ $ & & & & & & & & & & & & & & & & & & & & & & & & & & & & & & & & & & & & & & & v  .B m ",
"' e d @ < 4 4 4 3 3 4 4 3 3 1 3 4 4 4 3 3 3 4 4 4 4 3 1 4 4 3 4 4 4 3 4 4 4 4 3 3 3 3 3 4 4 1 1 =.y ",
"F L l # 4 4 4 4 4 4 4 4 4 4 4 3 4 4 4 4 4 4 4 4 4 4 4 4 4 4 4 4 4 4 4 4 4 4 4 4 4 4 5 4 4 4 4 3 ;.Z ",
"H p z $ , , , , , , , - , , : - , , - , , , - , , , , : - , - , , , * , , , , , * , , * , , , , -.u ",
"Z.6.=.$ & & % & & % % & & & & % & & & & & % % & % & % & & & & & & & & & & & & & & & & & & & & + *.C."
};
