/* XPM */
static char *result[] = {
/* columns rows colors chars-per-pixel */
"50 50 226 2 ",
"   c #010100",
".  c #0C0705",
"X  c #190207",
"o  c #18160A",
"O  c #1E1912",
"+  c #28040A",
"@  c #2A170D",
"#  c #3D0913",
"$  c #1C2008",
"%  c #282B11",
"&  c #363417",
"*  c #4F0D0E",
"=  c #450D16",
"-  c #53091A",
";  c #4B1319",
":  c #780108",
">  c #6A1410",
",  c #493317",
"<  c #543015",
"1  c #682413",
"2  c #6E3214",
"3  c #491E24",
"4  c #591926",
"5  c #671523",
"6  c #78162A",
"7  c #493727",
"8  c #5C332D",
"9  c #642729",
"0  c #723231",
"q  c #3C4613",
"w  c #4C5017",
"e  c #6C501C",
"r  c #55691F",
"t  c #726F1C",
"y  c #5B4D2A",
"u  c #584933",
"i  c #7A462A",
"p  c #6F5032",
"a  c #646226",
"s  c #777927",
"d  c #716D36",
"f  c #753743",
"g  c #334E4B",
"h  c #32676D",
"j  c #5A564B",
"k  c #485452",
"l  c #7A5746",
"z  c #655551",
"x  c #746949",
"c  c #717468",
"v  c #840008",
"b  c #8D000D",
"n  c #98010F",
"m  c #9B0012",
"M  c #950915",
"N  c #8D1313",
"B  c #A30114",
"V  c #AC0016",
"C  c #A60018",
"Z  c #AC0119",
"A  c #B2011A",
"S  c #AC1F1B",
"D  c #8A2C18",
"F  c #8A351D",
"G  c #AE3916",
"H  c #9D0E24",
"J  c #83192C",
"K  c #851832",
"L  c #851B33",
"P  c #AC0B23",
"I  c #B40A27",
"U  c #A7182B",
"Y  c #B61426",
"T  c #BD1631",
"R  c #8B2523",
"E  c #992429",
"W  c #9E3127",
"Q  c #962D37",
"!  c #A92D2E",
"~  c #C8112F",
"^  c #C71A37",
"/  c #8D4E2F",
"(  c #995839",
")  c #AD4E38",
"_  c #A55938",
"`  c #8D6E2B",
"'  c #88732E",
"]  c #DC4F23",
"[  c #873645",
"{  c #D02E48",
"}  c #E33A57",
"|  c #9B5149",
" . c #B35248",
".. c #8A6345",
"X. c #946E4A",
"o. c #8E7346",
"O. c #997047",
"+. c #A66342",
"@. c #A37247",
"#. c #AD6D54",
"$. c #987C64",
"%. c #8D7070",
"&. c #A37765",
"*. c #C3734A",
"=. c #D45267",
"-. c #F34F6B",
";. c #F44F6A",
":. c #FB5574",
">. c #FC5875",
",. c #6F821B",
"<. c #7B8E1C",
"1. c #7C9518",
"2. c #7B921D",
"3. c #768826",
"4. c #7A8E24",
"5. c #7E9423",
"6. c #7E9822",
"7. c #7E922B",
"8. c #7C8E31",
"9. c #6B8252",
"0. c #7B816A",
"q. c #83991D",
"w. c #839C1C",
"e. c #8AA21E",
"r. c #89A41C",
"t. c #92AC1E",
"y. c #96B31D",
"u. c #86842B",
"i. c #829624",
"p. c #859C24",
"a. c #899E25",
"s. c #81952B",
"d. c #8D9528",
"f. c #859B2A",
"g. c #899E2A",
"h. c #878838",
"j. c #889732",
"k. c #8B9C33",
"l. c #919235",
"z. c #929D39",
"x. c #A18729",
"c. c #86A224",
"v. c #8CA324",
"b. c #8EA924",
"n. c #87A529",
"m. c #8DA32A",
"M. c #8EA82B",
"N. c #91A624",
"B. c #93AB25",
"V. c #98AE26",
"C. c #91A62B",
"Z. c #9AA22B",
"A. c #94AB2B",
"S. c #99AE2C",
"D. c #96B125",
"F. c #9AB325",
"G. c #98BA27",
"H. c #96B12B",
"J. c #9BB32C",
"K. c #9EB92B",
"L. c #8DA332",
"P. c #8CA736",
"I. c #92A632",
"U. c #95AB32",
"Y. c #99AE33",
"T. c #96A239",
"R. c #96AC3A",
"E. c #99AE39",
"W. c #96B232",
"Q. c #9CB333",
"!. c #9EB933",
"~. c #9CB23A",
"^. c #9AB63B",
"/. c #A2BB25",
"(. c #A0B62E",
"). c #A2BB2C",
"_. c #A1B633",
"`. c #A3BB33",
"'. c #A9BF32",
"]. c #A1B63B",
"[. c #A4BB3A",
"{. c #A9BE3C",
"}. c #A7C32E",
"|. c #A6C337",
" X c #AAC333",
".X c #ABC33B",
"XX c #B0C739",
"oX c #898842",
"OX c #979347",
"+X c #8D8B51",
"@X c #AB894F",
"#X c #B8895A",
"$X c #B79758",
"%X c #9AAD42",
"&X c #9EB740",
"*X c #A2B742",
"=X c #A5BA42",
"-X c #B3AB58",
";X c #9F8A6E",
":X c #B89267",
">X c #B1926B",
",X c #BAA668",
"<X c #BAA075",
"1X c #CB9265",
"2X c #C79D77",
"3X c #E4926A",
"4X c #D8B274",
"5X c #ECAC78",
"6X c #EDB27D",
"7X c #ABC347",
"8X c #B1C746",
"9X c #94898C",
"0X c #A59E98",
"qX c #ABA39B",
"wX c #ACA3A1",
"eX c #B9B3A7",
"rX c #DDB586",
"tX c #E8B884",
"yX c #FCBA84",
"uX c #C4B4B4",
"iX c #FFC387",
"pX c #C4C1BE",
"aX c #D6D0CB",
"sX c #DCDAD5",
"dX c #E1E0DD",
"fX c #ECEBE5",
/* pixels */
"A.M.n.b.v.H.Q.m.J.n.b.1.C.c.|.B.B.D.H.H.A.n.t.C.R.^.G.n.n.n.v.W.W.Q.!.D.b.n.L.n.H.c.n.5.A.c.7.`.K.b.",
"H.r.b.J.D.).N.K.J.w.|..XK.C.!.H.I.1.c.7XM.f.A.H.C.D.G.K.U.!.D.N.p.U.~.J.w.i.2.p.i.m.b.C.Y.5.P.n.A.I.",
"B.B.).F.J.H. XB.).D.W.B.[.^.!.M.M.H.H.G.b.n.7.B.b.w % $ % % q 4.I.U.~.w.w..XH.I.&XQ.v.J.n.b.^.U.7.P.",
"F.J.J.XXXXm.(.).b.Q.b.~.&Xm.Q.b.b.G.A.J.t.r.H.7.o             . s ).C.Q.K.y.F._.!.B.C.n.2.L.t.p.^.I.",
"F.N.B.F.).H.b.b.G.p.k.W.!.~.`.n.U.j.a u.7.G.L.o                   ,.XX`.K.!.v.[.^.m.U.c.v.Y.W.W.4.g.",
"S..XY.A.'.).!.A.H.P.%X!.D.D.c.O.W U I P U _ &                     & W.n.w.f.L.~.f.L.A.i.6.M.7XR.7.m.",
"Q.H.H.XXQ.c.J.v.L.!.U.a.b.l. .^ I A V A Z A H O                   . 7.H.A.J.m.b.A.~.E.f.g.f.n.7.m.n.",
"/.`.}.B.J.M.g.W.[.b.m.6.s =.:.>.{ Z V Z Z Z A E .                   3.XXG.b.B.W.^.c.U.~.R.R.m.m.b.W.",
"F.C.!.b.M.H.7XE.G.A.p.L.=.:.-.>.;.Y V Z V V S ] ;                   s.m.2.n.B.b.m.H.Y.*XI.n.W.K.m.I.",
"F.H.i.t.c.D.Q.Q.U.g.W.@.} >.>.:.:.^ C Z V V S G -     O u O     O & U.W.r.J.J.v.S.A.C.W.p.v.!.M.7.4.",
").D.[.t.B.J.F.r.B.m.W.W ~ -.>.>.} V V Z V V W D 6   o $.:X&.j Q { A W s G.r.p.H.N.B.J.Q.c.H.B.M.&X7.",
"!.!.b.y.H.B.b.G.`.Q.k.! B { -.} Y V V V V C ] F Q 4 O ;XqX;X| ~ S M V E n.B.W.A.A.B.v.C.L.c.B.6.c.n.",
"c.p.v.y.2.M.2.F.D.b.s.U V Z A A Z V Z V A b D / D P 4 8 #.@XE V G 1 : I ' n.g.A.a.4.g.,.4.M.M.M.U.n.",
"M.n.^.G.1.1.K.c.w.D.m.! V V V V V V Z Z n 6 F ) U C / ..< u R n * D n Z d.n.m.s.p.R.I.b.M.U.n.2.b.G.",
"J.N.n.c.G.).G.y.r.i.G./ Z V V V Z Z Z m : ! ] B V m 1XrXl ;X#.* > G Z D 5.n.n.m.[.U.b.H.!.p.5.m.n.P.",
"B.F.F.b.H.c.b.N.M.p.b.a.H B V Z Z B b : M T I A m R 2Xc h <XtXi / D 1 i 6.5.c.p.2.m.b.[.A.p.5.M.H.k.",
"B.!.W.p.2.1.A.p.f.H.W.H.t N : v : : * * : m m b > y h k h j X.i / 5 v / b.r.R.m.f.c.6.6.C.XX}.c.6.w.",
"D.t.H.B.b.C.p.m.5.B.H.g.n.<.e 2 1 2 , < e t < * i ( g k g g r ' | / +.u.1.c.f.~.P.t M.P.L.m.n.f.U.i.",
" Xg.a.B.b.J.B.K.N.w.W.b.A.c.L.n.a.(.t.w.`.W.b.e _ _ ..+X0.9.R.T.7 X.>X3.n.B.m.g.t.H.W.r.C.g.I.g.B.7.",
"`.5.g.H.'.A.B.J.t.M.A.m.c.A.A.C.a.(.t.).g.s.Q.' / / &.c z oX7.^.w   % T.C.2.m.m.N.p.a.m.i.B.A.f.r.^.",
"r.(.).).t.B.).`.J.W.^.2.I.M.H.A.).a.m.i.B.W.m.s _ *.j >X>X+XW.!.i.q r q.H.Z.'.B.s.g.].I.Y.C.m.C.|.L.",
"`.).y.F.p.S.Q.J.B.N.B.[.!.K.`.r.B.H.C.S.Y.Q.A.R.( *.+.@X2XOX6.D.C.S._.V.A.A.q.w.v.S.C.b.F.J.J.`.).f.",
"Y.H.F.m.Q.F.'.).).A.A.c.J.J.A.8.i.i.A.V.N.Y.Q.Y.d +.#X#X2X<XR.W.C.4.J.A.b.A.a.a.a.t.C.k.a.m.C.b.p.A.",
"K.).'.A.N.}.N.). XA.A.J.B.A.F.B.'.A.a.V.'.C.S.C.y 9 9 0 0 p d r.S.N.A.L.Y.J.).H.e.t.Y.8XQ.Y.N.e.m.A.",
" XQ.J.B.C.).M.D.y.v.Q.B.(.w.F.V.B.C.S.(._.C.(.I.@ + # ; 4 # p U.N.'.'.K.B.t.a.A.A.S.F.m.H.m.m.S.N.`.",
"J.5.k./.Y.2.n.H.v.b.c.(.).V.A.8.g.i.Y.N.B.I.J.I.@ + # 5 ; 9 f oXy.'.(.Z.N.C.C.m.Y.Y.e.S.H.f.<.S.Q._.",
"`.=X'.N.[.J.`.A.K.A.b.~.B.q.g.,.I.C.C.q.C.L.C.w ; 6 5 = 3 8 5 f l.t.H.C.m.Q.a.p.4.U.Q.C.N.J.F.N.B.S.",
"a.C.I.C.A.B.'.C.2.Q.U.f.A.i.m.s.C.H.N.C.d.Y.H., - L L = X + = 6 [ oXB.A.C.i.g.E.Q.J.C.H.[.F.V.Q.`.J.",
"E.~.i.].S.V.N.E.s.A.~.A.C.5.q.m.I.v.m._.U.Z.3.# 6 J L -   X = 6 J L o.A.d.i._.A.g.i.a.g.a.'.Q.a.m.F.",
"V.Q.S.F.F.XXN.Q.].'.v.A.r.g.v.N.I.I.g.a.m.C., 5 L K L ; 3.% . - L 6 L o.Y.I.S.L.g.C.R.Y.H.N..X.XB._.",
"a.].).F.B.q._.V.Q.i.C.A.A.a.`.Y.Z.t._.Y.).t - K 6 L K p '.Z.w + 5 6 6 K ..W.J.N.A.V.H..XV._.S.V._.V.",
"S.(.(.V.Q.E._._.H.g.Y.A.Y.m.H.B.B.A.g.S.4.@ ; 0 6 6 K h.r.V.q.w # 5 L L L X.m._.S.g.(.V.A._.m.E.XX'.",
").'.S.S.C.m.S.B.J.A.v.A.Y.R.i.2.<.L.E.j.c wX0XsXaX%.8 oXJ.N.g.S.w + 5 6 5 5 x J.E.E.U.N.S.B._.}.XXJ.",
"_.]._.C.S.K.m.S.N.I.Q.m.P.].Y.U.j.I.S.d wXfXdXdXfXsX9Xj. X(.V._.3.7 z %.uXqXeX_.S.d.a._.N.B.V.).A.R.",
".X'.(.F.).D.A.a.A.`.S.a.R.g.a.<.A.N.B.h.c z l l j 9XwXp.J.[.S.Y.a.x 9XpXpXpXqX_.J.N.J.(.).Q.w.Z.[.f.",
"w.J.a.N.A.N._.m.m.S.m.k.I.m.p.a.c.S.Q.H.e 1X3X@.u u oX2.f.g.S.A.C.I.p ..#.d a.(.v.(.V.(.m.`._.~.].Q.",
"F./.`.C.W.`.t.).s.~.R.L.Y.A.Q.C.A.].C.a.$XiXtXOXY.C.N.C.S.S.1.Z.A.b.' 6X4XY.g.N.V.XX{.).A.J.[.7X~.a.",
"/.(.4.m.m.B./.).~.E.E.L.A.[.B.Z.C.a.C.OX5XyX2XW.V._.<.U._.V.S.C.Y.f.#XiXOXD.[.{.XX_.{.]._.[.].].C.a.",
"Y.Y.I.a.m.S.m.E.f.a.Y.a.5.c.M.`.v.c.M.@XyX6Xz.(.A.d.'.Q.i.N._.[.Y.u.5X4Xf.}.[.{.(.J.].Q.8X{.Q.(.!.b.",
"Q.A.H.S.w.a.=X[.a.m.m.g.m.b.J.m.v.K.L.1XiX,Xm.Y.[.S.B.B.C.z.g.V.v.@XiX-Xb.Q.(.Y.g.Q.=X*X8X[.`.V.v.n.",
"p.5.S.B.J.A.W.`.A.q.a.s.J.F.).C.C.'.h.tXtXd.Q.a.B.`._.N.S.i.g.S.H.$XtX%XS._.{.A.Y.[.[.U.I.H.J.N.H.b.",
"].g.C.i.q.N._.c.N.B.Y.A.S.H.W.Q.m.I.X.5X,XA.Z.E.V.`.C.I.U.S.[.Q.u.J ( '._.C.S.A.Q.N.R.g.[.H.N.Y.[.b.",
").`.`._.v.Q.`.C.v.C.A.S.B.w.a.a.`.j.:XtXz.a.A.C.S.N.'._.Y.Z.Z.^.2 B / }.{.Z.U.E.I.Z.p.a.v.A.J.v.b.M.",
"w.S.(.F.`.a.v.Z.C.m.N.A.m.Y.S.a.C.i  .$XY.g.g.i.'.(.a.t.J.Q.a.h.1X+.R Z.H.{.Q.~.].A.H.A.Q.a.a.A.A.!.",
"E.a.V.S.b.E.J.V.C.m.C.A.p.m.m.b.a C V ` D.J.m.V.q.Z.C.A.J.J.I.4X3XZ B ( ^.D.b.B.(.N.~.C.N.N.m.m.g.!.",
"_. XV.I.d.S.V.S.E.A.Y._.I.i.I.!.a H E T.|.Z.U.m.`.V.Q.B.a.S.z.$XQ v  .tX:Xd j.).t.t.}./.F.'.7X5.v.n.",
"C.a.a.V.S.`.'.J.`._.g.K.Q.`.A.3.1 m | L.c.p.`.A.S.J.N.Q.Z.A.S.3.z.s.h.$X#X$.h.1.m._.S.N.}.}.J.n.D.D.",
"g.i.N.(.(.S.V.(._.S.J.c.p.K.W.< b Z C d.W.Q.A.I.Z.U.V.B.(.(.e.(.'.(.w.F.J.S.S.B.K.N.r.C.).F.D.b.D.C.",
"J.S._._.(.u./.V.A./.V.C./.m.u.s x.` x.C.J.].a._.`.`.Q.J.'.g.a.'.S.V.XXJ.(.].A.F.}.).K.).a.B.}.C.f.5.",
"'.a.I.g.C.J.V.y.T.a.(._.V._.B.t.y.}.J.b.w.S.Z._.D.i.L.a.g..X).g.].=XS.Z.F.C.Q.W.J.s.J.V.H.v.b.(.B.C."
};
