/* XPM */
static char *result[] = {
/* columns rows colors chars-per-pixel */
"50 50 111 2 ",
"   c #000000",
".  c #0E0402",
"X  c #070C0D",
"o  c #090E0F",
"O  c #1A0706",
"+  c #130805",
"@  c #1C0708",
"#  c #170B0B",
"$  c #1D0A09",
"%  c #0E1212",
"&  c #111617",
"*  c #151919",
"=  c #220504",
"-  c #230D0A",
";  c #27100C",
":  c #2D140F",
">  c #2F1510",
",  c #351511",
"<  c #361B14",
"1  c #3C1E17",
"2  c #272929",
"3  c #2E2F2F",
"4  c #302F2F",
"5  c #30302F",
"6  c #303030",
"7  c #3B3332",
"8  c #3B3A3A",
"9  c #411713",
"0  c #4C1611",
"q  c #431B15",
"w  c #491A16",
"e  c #451E1A",
"r  c #541F19",
"t  c #4C221A",
"y  c #53251D",
"u  c #59271E",
"i  c #54281F",
"p  c #572A21",
"a  c #5A2B21",
"s  c #4D3533",
"d  c #513633",
"f  c #612F25",
"g  c #6B2922",
"h  c #7C2E26",
"j  c #7F2F28",
"k  c #703127",
"l  c #773529",
"z  c #7C362B",
"x  c #7D392D",
"c  c #574E4D",
"v  c #605D5D",
"b  c #842C23",
"n  c #823029",
"m  c #8F342B",
"M  c #853A2E",
"N  c #883A2D",
"B  c #94362D",
"V  c #903D2F",
"C  c #833F31",
"Z  c #8B3E31",
"A  c #A53E33",
"S  c #AC3D31",
"D  c #854031",
"F  c #8B4233",
"G  c #944435",
"H  c #984234",
"J  c #954838",
"K  c #A34739",
"L  c #AD463B",
"P  c #B44337",
"I  c #A8503E",
"U  c #B45643",
"Y  c #BD5442",
"T  c #877A79",
"R  c #8A7D7C",
"E  c #CB5947",
"W  c #D45043",
"Q  c #D55945",
"!  c #DD5C47",
"~  c #D75F4C",
"^  c #D95F4C",
"/  c #CC634C",
"(  c #DB614D",
")  c #DF6651",
"_  c #DA6952",
"`  c #E2644F",
"'  c #E46650",
"]  c #E96751",
"[  c #E56D55",
"{  c #EB6953",
"}  c #F36C55",
"|  c #FA6E57",
" . c #E77057",
".. c #E87057",
"X. c #EA7158",
"o. c #F4755B",
"O. c #F7785D",
"+. c #F9795E",
"@. c #FF7D61",
"#. c #FF8164",
"$. c #848484",
"%. c #8B8B8B",
"&. c #A08F8E",
"*. c #B6A19F",
"=. c #BAA3A1",
"-. c #DBB5AE",
";. c #E2BCB6",
":. c #E1BEBA",
">. c #F3CAC3",
",. c #F8CBC3",
"<. c #F8CFCB",
/* pixels */
"%.                  & *.<.v                                             v <.=.&                   $.",
"  q M l z x C D D F + 9 S   y M z z M D C D C C C C C C C C C C C D F a   S 0 . C l z z M D D F t   ",
"  M | ' { { +.+.O.@.1 9 A   K | ] ' { +.+.+.+.+.+.+.+.@.+.+.+.+.O.O.@.U   A w < } ] ] ] o.+.O.#.J   ",
"  l ] ( ( ( [ ..[ o.< 9 A   H ' ~ ( ) X. . . . . . .[  . .....[  .[ o.I   A w > ` ^ ( ( [  . .+.F   ",
"4 N { ( ( ` ..X.X.o.< 9 A   H ] ( ^ ) X.X.X.X.X.X.X.X.X.X.X.X.X...X.o.I   A w > ` ( ( ( [ X...+.F   ",
">.! ) ( ( ( ..X...o.< 9 A   H ] ( ( ' X.X.X.X.X.X.X.X.X.X.X.X.X.X.X.o.I   A w > ' ( ( ( { X...+.F   ",
";.Q ( ( ( ` ..X.X.o.< 9 A   G ] ( ( ' X.X.X.X.X.X.X.X.X.X.X.X.X.X.X.o.I   A w > ` ( ( ^ [ X.X.+.F   ",
"* N ] ( ( ( ..X.X.o.< q A   H ] ( ^ ' X.X.X.X.X.X.X.X.X.X.X.X.X.X.X.o.I   A w > ] ^ ( ` [ X...+.F   ",
"  l ] ~ ^ ) [ [ [ X.< q A   G ' / ( ) X. .X. . .X.X. ... .......[ ..o.I   A w > ` ( ( ( [  . .O.F   ",
"  Z | ' ] { O.@.+.@.1 9 A   K | ] { } +.+.+.+.+.+.+.+.+.+.+.+.+.+.O.@.U   A q , } ] ] ] o.O.O.#.J   ",
"o ; a y p y p p a a   r P   < p y y i u a a p p a a a a a u a a p p d 1   P r   y y y y p p p f : X ",
"&.= @ @ @ @ $ # $ O , A W g $ # $ = $ $ $ $ $ % - $ $ $ $ $ $ $ $ $ $ # g W A , $ - $ $ - $ $ # = &.",
"c s s s s s s s s s s s s s s s d s s s s s s s s s s s d s s s s s s s s s s d s s s d s s s s d c ",
"2 2 3 3 2 2 3 3 3 3 3 2 3 2 3 2 3 3 2 3 3 3 3 3 3 2 3 3 3 3 3 3 3 2 3 3 2 3 3 2 3 2 2 3 3 3 2 3 3 2 ",
"4 4 3 4 3 3 3 3 4 4 4 3 6 6 3 3 5 3 3 3 6 3 3 3 3 3 3 3 3 3 3 3 6 3 6 6 6 6 3 5 3 5 6 3 3 4 4 3 3 5 ",
"4 4 4 4 3 3 3 3 3 3 4 3 6 6 3 3 3 3 3 3 3 3 3 3 3 3 3 3 3 3 3 3 3 3 3 3 3 3 3 5 3 5 3 3 6 3 3 4 3 3 ",
"4 3 3 4 4 3 4 3 6 3 3 5 4 3 3 3 3 3 5 3 3 3 3 3 3 4 3 3 3 3 3 3 3 4 3 4 4 3 3 3 4 3 4 3 4 3 3 4 3 3 ",
"6 3 3 3 3 3 4 3 6 3 3 3 3 3 4 3 3 3 5 3 3 3 3 4 3 3 3 3 3 3 4 3 3 4 3 3 4 3 4 3 3 5 4 3 3 3 4 3 3 3 ",
"3 3 4 3 3 3 3 4 3 3 6 3 3 3 3 3 3 3 3 3 3 5 3 3 5 3 3 3 3 3 3 3 3 3 4 3 3 3 3 3 4 3 3 3 3 4 3 3 3 3 ",
"6 3 3 3 6 3 3 3 4 3 3 3 4 3 3 4 3 5 5 5 3 4 3 3 3 3 3 3 3 3 3 4 4 3 3 3 3 4 3 3 3 3 3 3 3 4 3 3 3 3 ",
"3 3 3 3 3 3 4 3 3 3 4 3 3 6 3 3 5 3 3 5 3 5 3 4 3 3 3 3 3 3 4 3 3 3 3 3 3 3 3 3 3 3 3 4 3 3 3 3 4 3 ",
"3 3 3 3 3 3 3 3 3 3 3 3 3 4 3 3 3 5 3 3 3 3 3 3 3 3 3 3 3 3 3 3 3 3 3 3 3 3 3 3 4 3 3 4 3 4 3 4 3 3 ",
"3 3 3 3 3 3 3 4 4 3 3 3 3 3 3 3 3 3 5 3 5 3 3 3 2 4 3 3 3 3 3 4 3 3 3 3 3 3 3 3 3 3 3 3 3 3 3 3 3 4 ",
"3 3 3 3 3 3 3 3 3 3 3 3 3 3 4 4 5 3 3 3 3 3 3 3 4 4 3 4 3 3 3 3 3 3 3 3 3 3 3 3 3 3 3 3 5 3 3 3 3 3 ",
"3 3 3 3 4 2 4 4 3 6 3 3 3 3 3 3 3 3 3 3 3 3 3 3 4 4 3 3 3 3 3 4 3 3 3 3 3 3 3 3 3 4 4 6 3 3 4 3 4 3 ",
"3 4 3 3 3 3 4 4 3 3 4 3 3 4 3 3 3 4 3 3 3 3 5 4 3 4 3 3 3 4 3 3 3 3 3 3 3 3 3 3 3 3 3 3 4 3 3 3 3 3 ",
"3 3 3 3 3 3 4 3 6 6 4 3 3 3 3 3 3 4 3 3 3 3 3 3 4 3 3 3 3 3 4 3 3 3 3 3 3 3 3 3 3 3 4 3 3 3 3 4 3 3 ",
"3 3 3 3 3 3 3 3 3 3 3 3 3 3 4 3 3 3 3 3 3 3 3 3 3 3 4 3 3 3 3 3 3 3 3 3 3 3 3 3 3 4 3 3 3 3 3 3 3 3 ",
"3 4 3 3 3 3 3 3 4 3 3 3 3 3 3 3 4 4 3 3 3 3 4 4 3 3 3 4 3 3 3 3 4 4 4 4 5 3 3 3 3 3 3 3 4 3 3 3 3 4 ",
"3 3 3 4 4 3 3 3 3 3 5 3 3 3 3 6 3 3 3 4 3 3 3 3 4 4 3 3 3 3 3 4 4 4 4 3 3 3 4 3 3 3 3 3 3 3 3 3 3 3 ",
"5 6 3 3 4 3 4 3 3 3 3 3 4 3 3 3 5 3 3 4 3 3 4 3 3 3 3 3 3 3 3 4 4 6 4 3 3 3 3 3 3 3 3 4 3 4 4 3 4 3 ",
"3 4 4 3 3 3 4 3 4 3 4 3 3 3 4 3 3 3 4 3 3 3 6 3 3 3 3 4 3 5 3 4 3 5 3 3 4 3 3 4 6 4 3 3 3 3 3 3 4 3 ",
"3 3 3 3 3 3 3 3 3 6 4 4 3 3 3 4 4 4 4 3 3 5 3 4 3 3 3 3 4 3 3 4 3 3 3 3 3 3 5 4 3 3 4 3 3 4 3 3 3 3 ",
"4 3 3 3 3 3 3 3 6 3 4 4 3 3 3 3 5 4 4 4 3 3 3 4 3 3 3 4 4 4 3 3 4 3 3 3 4 3 3 3 3 5 3 3 3 3 3 3 3 4 ",
"3 3 3 3 3 3 3 3 3 3 4 4 3 3 3 3 3 4 5 6 3 3 3 3 3 3 3 3 4 4 3 3 3 3 3 3 5 3 3 3 3 3 3 3 3 3 3 3 3 3 ",
"6 3 4 5 4 4 3 3 3 6 3 3 3 3 3 3 3 3 5 6 4 3 3 3 5 4 4 3 4 3 3 3 4 5 4 5 5 3 4 5 5 3 3 4 3 4 3 3 3 3 ",
"2 6 3 3 3 3 3 3 6 2 3 6 3 3 3 3 3 3 3 2 3 3 3 3 3 3 3 3 3 3 3 3 3 3 3 3 3 3 3 3 6 2 3 3 3 3 2 3 3 3 ",
"8 7 7 7 7 7 7 7 8 7 7 6 7 7 7 7 7 7 7 7 7 7 7 7 6 5 7 7 7 7 7 7 7 7 7 7 7 7 6 7 8 7 7 7 7 7 7 7 7 8 ",
"R O # @ + # # + # # # # # # # # # # # # + # # e L L e # + # # # + # # # # # # # # # # # # # # # @ T ",
"& - p e t t p p y p y i i y y p p y i p p p t   m B   e t y y y p p i t i i i i t p y y p p p a : % ",
"  C | ' ] { o.@.@.o.@.@.X.@.@.o.+.o.+.O.o.@._   h j   E } ` ` o.o.@.@.@.o.@.@.+.@.o.@.@.o.@.X.@.J   ",
"  z ] ^ ^ ( [ .. .[ X. . . . .[ X.X.X.X.X.X./   h n   Y ` ( ( )  .[ [ X.[ [ [ X. .[ X.X.[  ._ @.F   ",
"  z { ^ ( ' ..X. .X.X.X.X.X. .X.X.X.X.X.X.X./   h n   Y ` ( ( ) X.X.X.X.X.X.X.X.X.X.X.X.X.X. .@.F   ",
"  z ] ^ ^ ) X.X.X.X.X.X.X.X.X.X.X.X.X.X.X.o./   h n   Y ` ( ( [ X.X.X.X.X.X.X.X.X.X.X.X.X. .[ @.F   ",
"  z ] ( ( ' [ X.X.X.X.X.X.X.X.X.X.X.X.X.X.X./   h n   Y ' ( ^ ' X.X.X.X.X.X.X.X.X.X.X.X.X.X. .@.F   ",
"  z ] ( ^ ) ..X.X.X.X.[ X.X.X.X.X.X.X.X.X.o./   h n   Y ` ( ( ' X.X.X.X.X.X.X.X.X.X.X.X.X.X.[ @.F   ",
"  z ] ~ ^ ) [ [ ..[ [ [ [ [ X.X.[ X. . . .X./   h n   Y ( ( ( '  .[  . .....X.[  . .[  .[ _ _ @.F   ",
"  M | ] ' ) X.@.@.@.@.o.@.@.@.@.@.+.+.+.+.@._   j n   E } ] ] } @.o.@.@.O.O.@.o.@.@.o.@.@.@.@.@.J   ",
"  w F M V ! ' J F F F F F F F F F F F F F G x   h b   k Z M M C F F F F F F F F F F F F F F F J t   ",
"$.      7 ,.-.%                               8 :.:.8                                             $."
};
