/* XPM */
static char *result[] = {
/* columns rows colors chars-per-pixel */
"50 50 94 2 ",
"   c #687D17",
".  c #6E8417",
"X  c #768C16",
"o  c #708619",
"O  c #758A1E",
"+  c #7A8D1C",
"@  c #779318",
"#  c #7B931D",
"$  c #7F981C",
"%  c #758A24",
"&  c #7A8E25",
"*  c #7D9423",
"=  c #7F9821",
"-  c #7E932C",
";  c #7C8E31",
":  c #80951D",
">  c #849C1D",
",  c #889E1F",
"<  c #87A11C",
"1  c #8BA21E",
"2  c #8EA91E",
"3  c #92AC1E",
"4  c #94B11D",
"5  c #9AB61E",
"6  c #829624",
"7  c #859C24",
"8  c #899E24",
"9  c #81952B",
"0  c #859B2A",
"q  c #8A9E2A",
"w  c #819731",
"e  c #859B30",
"r  c #8B9E31",
"t  c #87A122",
"y  c #8CA324",
"u  c #8EA924",
"i  c #87A129",
"p  c #8DA32A",
"a  c #8FA82B",
"s  c #91A624",
"d  c #93AB25",
"f  c #98AE26",
"g  c #91A62C",
"h  c #94AB2B",
"j  c #99AE2C",
"k  c #96B124",
"l  c #9BB325",
"z  c #9DB925",
"x  c #96B12B",
"c  c #9BB32C",
"v  c #9EB92C",
"b  c #87A034",
"n  c #8DA332",
"m  c #91A633",
"M  c #95AB32",
"N  c #99AE32",
"B  c #92A539",
"V  c #96AC3A",
"C  c #99AE3A",
"Z  c #97B031",
"A  c #9CB333",
"S  c #9EB933",
"D  c #9DB33B",
"F  c #9DB838",
"G  c #A2BB25",
"H  c #A0B62D",
"J  c #A2BB2D",
"K  c #A1B733",
"L  c #A4BB33",
"P  c #A9BF33",
"I  c #A1B63A",
"U  c #A4BA3A",
"Y  c #A8BE3C",
"T  c #A5C22E",
"R  c #AAC32D",
"E  c #A5C037",
"W  c #AAC333",
"Q  c #ADC832",
"!  c #ABC33B",
"~  c #B0C737",
"^  c #B0C73B",
"/  c #B1C83B",
"(  c #95AC43",
")  c #9EB740",
"_  c #A2B642",
"`  c #A5BA42",
"'  c #A9BF42",
"]  c #A6BA48",
"[  c #A6C040",
"{  c #ABC545",
"}  c #AEC44C",
"|  c #B1C742",
" . c #B2C942",
".. c #B2C64C",
/* pixels */
"h a y a < l F p c a a $ y t E u x k c x h i 2 a V F k a = a u A N K A k a 0 b i k i 7 * x t - F z a ",
"x < u l k S y v l $ E ! v a S A a @ t { a 9 h A u y c l Z S u i 7 N A v $ 7 & 7 i a y h M = n a a M ",
"f f L l x x Q f T k A a [ F F i a v x v 2 a = x k u n p M h 7 t p M N , < P c M F A u c y a F M = B ",
"l x x /  .p c J u S t F D n c u a k i x u 2 a a u F 7 U L U A U U h h F v 5 f A F x a i $ b u = ( M ",
"k u f k G x d u l = n A S A F a Z v < c u j ! * n ! U U A I A p f l L U v F y S A i V 1 y M F M & = ",
"j ! M j P J F h v n ( S k d d F ! t x x x U j 0 D L x U m d d U E L h y > 0 n F 0 b h 0 = a [ V - p ",
"A x h / A a l y n S m t a x 1 x i p - a d U c N D I D q x P D F v p i a x v i x j A C 9 0 0 i - a i ",
"J J T d v i i Z F a a 7 7 i i Z n e i y m p q q M M h j L y p h A j m ! z y u x F i M D V V p a a A ",
"k d A y a Z } V v h = F 0 - y L a $ K U p K C Y K D ! j n U L h h s j 0 , u h a 8 Z A _ M i x v a a ",
"G x = k t k S x a i A Z p r u x & j 8 j h g m { L L c g _ A K U h v x M < x c y x j p M t y F a - % ",
"v k U 4 u v l < d y Z a Y a u v h u 7 M m % N I I 8 q g c d M k h ! n 7 l < t x y f x A t x x a ] - ",
"F S y 5 x u u v L A k L f x u x u d c c y p j N N U Y N h A g h > h x i k a Z a d f y a n t u = = i ",
"7 7 i 5 @ a @ v k y y ! ! z 0 t 2 S h c A f A L d K z c q p p n d v 0 & = i i h 0 % p o % a a M Z u ",
"u i Z v @ $ v t $ k a S Q 0 d W u < h y h D I s L j y c A N a h u u u S l i a - 0 M m a h M i @ t v ",
"L d i t v T z 4 1 7 z t t y u k M y d y j M h g K A r % * j v a a t a i = i t a U h y v S 7 * a i m ",
"d k l u x t 2 y a i y k 7 a k y c h j d y d m d 8 d c d y p * % 7 7 y @ * = 0 7 $ p a F a 7 # a Z b ",
"d J x = 7 @ h 0 - x Z h , k m p k h 1 1 c , p i 0 h k 1 y j u , p a d h i y V m 0 7 = - a ! E t * 7 ",
"k u x h y a > p * d v i t < - M v d p , 1 H 1 y a $ # p 7 7 - d N m 0 X 7 i 0 D n   a a m p a 0 M = ",
"~ 0 y d y c f x d $ x p h 7 r p s c d > A g f 3 d n n i < m V V r & r w 7 f q q 2 x Z y g q m q d - ",
"L * 0 v L f d J 3 h j a 0 a g d 0 K f L q 9 A d 1 * O * M p 0 V s p m N a $ p q d 7 0 u * d j 0 < F ",
"1 c J R 3 d J c l A Z # p h x x J q p 6 d Z q 7 > 7 V p M V Z v s A q # c d L s 9 q I g N g y g ! b ",
"L J 4 l 7 h K c s a h E F A L , d x g j N A M M p p > h ) b i d q g N f M j : 8 y j m p x c A J v 0 ",
"N v l p A z L L c h h t x v h - > 7 j 3 s N K M 9 0 n V d 7 i A 8 6 N d s h 8 8 , 2 s m 8 p d p 7 h ",
"x G E m h G d J Q h h v d h l f L M 8 f P g j g B ] n h K u h 7 j h j p N c G j 1 d N | c N g 1 p x ",
"Q c j d d J d x 5 y A d v > c h f g j H K g K g m m 1 l L A p M s P P H f s 8 j M j v p x g p j 2 L ",
"x - r G N & a a y y y v H d d ; q 6 j s j g j N N h d X q { g 8 3 J G j s s g q M j , k k 0 O j A U ",
"L Y L s U c L h c j h A f # q . m m g : g r 8 8 1 H j s L N q > g 3 c h r I 8 q & M N g g c k d d h ",
"8 g M g h f P a # c V 0 h 6 p 0 m f g g 8 N f s s 8 m H 1 M 7 h K 1 g f g : 7 N c c g c U l f A K c ",
"C D 6 K h d s C 0 j N m s 6 : g g 8 s K j g g 6 5 P Y 8 g s s g M 8 g g 8 0 N h q 6 8 q 8 P A 8 p G ",
"j A j f z / s A I L y h 8 r 1 s g m r 8 8 s r C P f , j N g H f N M m g q N j n q g B N j u ! ! s K ",
"8 K L l f : A l H 6 p h f 8 K N f s I H j P N j , I g H K H j 1 , N N g C A A d d c v Y f K j j J j ",
"j K H f A C K H N q M j N p f g f g q g s f H ' j 8 8 g 8 s : g M K z d N j 8 K h 8 K f j A y N ^ P ",
"J P c j p y j f j m y h N M 7 # : r B g I K f s 6 g m q j s g g 6 I f P s j g j N C N s f f K P ~ c ",
"c I I g j v y A d h A y B D N M q m g 8 N 6 f M N g j j P H f N 6 I j j s s N N N q q K s s f H h V ",
"! P H G J d h p h U j 0 V q 0 + g s s j q j j : N j s g N I f j 8 q q N H I K P j s f H H H , g U 7 ",
", l 8 8 h d A y p j q n m p 8 7 8 N A j s g g : r N f : q q j N g N g m H I r H s H f H q K H I I D ",
"5 G L d Z L d J 9 D V m A d A g g I r g Y f C A j 8 g g j j : s g g I g H I 9 s f / Y H N H P ..C q ",
"z H & p p d G v D C C n h U d g s 8 g ' H H j K f K + N H f j g N j , g g f P Y ^ H Y K K I I I d y ",
"N N m q q j y N 7 q j 0 6 y p U s 8 j s H g g H f q U H 6 g I K g g j I q P I Y H j I I ..Y N H v u ",
"A M c h , 8 ` ` 8 p p 0 p s x p 8 j N s I f N N U j s s g r 8 j g j | H g H H N 8 K I I ..Y P s t t ",
"7 * j f A d N K h : 7 9 c k J M g L H L N s N 6 s P N s N 6 q g L c L K j K Y h N I I C N f j s x a ",
"U q p 6 > s H 8 s d A g j x j A s K s 8 m j j D f P g N N g Y N L L Y K K h M h K g g r I j f N U a ",
"J L L K y K K h y h h j d , 7 y K g K s j 8 f p j s P K N f j C I j h K Y j j V N g 8 8 q f j s a u ",
", j j G K 0 s h g y g f y M c 8 g 8 f g I 0 q 6 P H 8 s H N 8 _ ^ f N P j L K D C j f g N 8 8 g x S ",
"C 8 j j g N j f g y g h 9 p y y 6 N s c f j q f , g g g H g U K g K P H J h y s v d A y s s g q 7 F ",
"c W j g 7 j f j N N N A n 6 M A C s , K K j N s H f N f 8 N U I 6 g g s k 9 p J 2 d W G G L Y 6 a y ",
"g 7 8 f j P P c U A 8 v A L h 0 g , f q 8 6 K m j H s K g f g s L M p P y h h # 8 K x d R W S a x d ",
"q 7 s H K j f H c A c 8 7 v m : g N M g N K j N q j f s H f s j K j , K J j z d J s 7 d J l u u l p ",
"c j K K H : H s N G f g H s 9 g P g H g H K q H H P K H P q 8 P K s ~ j H I g l R L z H q s T d 6 6 ",
"J 8 m p g H f f B 8 H H f H g , f H j 8 , g g K j 6 r 8 q Y P 8 I ` f j j g N K v 6 c f x y a H d h "
};
