/* XPM */
static char *result[] = {
/* columns rows colors chars-per-pixel */
"50 50 153 2 ",
"   c #000000",
".  c #0A0504",
"X  c #0E0806",
"o  c #060C0D",
"O  c #130805",
"+  c #1E0E0A",
"@  c #0D1011",
"#  c #111617",
"$  c #151919",
"%  c #2E0706",
"&  c #240C0A",
"*  c #2D0E0D",
"=  c #330907",
"-  c #320D0B",
";  c #24120D",
":  c #2E110E",
">  c #33110E",
",  c #2F1510",
"<  c #321611",
"1  c #3F1612",
"2  c #361C14",
"3  c #3C1E16",
"4  c #222526",
"5  c #252929",
"6  c #2B2D2D",
"7  c #383635",
"8  c #3A3B3B",
"9  c #45130F",
"0  c #411713",
"q  c #4C1611",
"w  c #451A15",
"e  c #481A16",
"r  c #501D18",
"t  c #621916",
"y  c #601F1C",
"u  c #681B18",
"i  c #412019",
"p  c #4D251D",
"a  c #52261D",
"s  c #5B211B",
"d  c #53281F",
"f  c #66251F",
"g  c #6C221B",
"h  c #552A20",
"j  c #5B2C22",
"k  c #672620",
"l  c #6A2720",
"z  c #6C2821",
"x  c #772C24",
"c  c #7C2E26",
"v  c #7F2F28",
"b  c #673227",
"n  c #6B3428",
"m  c #703127",
"M  c #773529",
"N  c #7C362B",
"B  c #7D392D",
"V  c #4C4C4C",
"C  c #525151",
"Z  c #5D5A5A",
"A  c #605D5D",
"S  c #842C24",
"D  c #8D2924",
"F  c #872D29",
"G  c #8B2E29",
"H  c #833029",
"J  c #8C342B",
"K  c #853A2E",
"L  c #883A2D",
"P  c #91362D",
"I  c #9A352B",
"U  c #95382E",
"Y  c #833F31",
"T  c #8B3E31",
"R  c #903F32",
"E  c #9B3A30",
"W  c #A53E33",
"Q  c #AB3D32",
"!  c #854031",
"~  c #8B4233",
"^  c #944435",
"/  c #994335",
"(  c #954838",
")  c #9B4A3A",
"_  c #AE4136",
"`  c #A44739",
"'  c #A54C3B",
"]  c #AB4B3C",
"[  c #B14237",
"{  c #B44438",
"}  c #BC473A",
"|  c #B34E3E",
" . c #A7503E",
".. c #A8503E",
"X. c #C64B3E",
"o. c #CA4C3F",
"O. c #AF5442",
"+. c #B25543",
"@. c #BD5442",
"#. c #B65844",
"$. c #BE5B47",
"%. c #BF5C48",
"&. c #CD4D40",
"*. c #D54F42",
"=. c #C45644",
"-. c #CC5947",
";. c #C55F4A",
":. c #CE5F4B",
">. c #D55042",
",. c #DB5244",
"<. c #D55945",
"1. c #DD5C47",
"2. c #D55E4A",
"3. c #D95F4C",
"4. c #E25546",
"5. c #CD634D",
"6. c #D7604C",
"7. c #DB614D",
"8. c #D66750",
"9. c #DE6650",
"0. c #DD6A52",
"q. c #E2644F",
"w. c #E46550",
"e. c #EA6752",
"r. c #E36C54",
"t. c #EB6A53",
"y. c #F36C55",
"u. c #FA6E57",
"i. c #E77057",
"p. c #E97057",
"a. c #EA7158",
"s. c #F4765C",
"d. c #F8775D",
"f. c #F7785D",
"g. c #FA795E",
"h. c #FF7D61",
"j. c #FF8164",
"k. c #848484",
"l. c #8B8B8B",
"z. c #A38F8E",
"x. c #A69291",
"c. c #A99493",
"v. c #B6A19F",
"b. c #BAA3A1",
"n. c #CEB1AF",
"m. c #DBB5AE",
"M. c #D1B3B0",
"N. c #E2BCB6",
"B. c #E1BEBA",
"V. c #EEC6C4",
"C. c #F2CAC4",
"Z. c #F8CBC3",
"A. c #F8D0CC",
/* pixels */
"l.                  # v.A.A                                             Z A.b.$                   k.",
"  w K N N B Y Y ! ~ O 9 Q   a K N N K ! Y Y Y Y ! Y Y Y Y Y Y Y Y ! ~ j   Q q . K N N N K ! ! ~ p   ",
"  Y u.e.t.t.g.g.f.g.3 0 _   ` u.e.e.t.g.f.g.g.g.g.g.s.g.g.g.g.g.g.f.h.+.  W e 2 u.e.e.e.s.g.f.j.(   ",
"  M e.2.3.7.r.i.i.s.2 0 W   / q.2.7.9.i.i.i.i.i.i.i.a.i.r.a.a.r.i.r.s. .  W e , 7.2.7.7.r.i.i.f.~   ",
"6 T e.7.7.7.a.a.a.s.2 0 W   ^ e.7.7.9.a.a.a.a.a.a.a.a.a.a.a.a.a.a.i.s.'   W e , q.7.7.7.t.a.i.g.~   ",
"C.1.7.w.7.q.t.a.i.s.2 1 W   ^ e.7.3.w.a.a.a.a.a.a.a.a.a.a.a.a.a.a.p.s.O.  W e , q.7.7.7.a.a.i.g.~   ",
"N.<.7.7.7.7.a.a.a.s.3 0 W   / e.7.3.w.a.a.a.a.a.a.a.a.a.a.a.a.a.a.a.s...  W e , e.7.7.7.r.a.i.g.~   ",
"$ L t.7.7.7.i.a.a.s.2 0 W   / e.7.7.9.a.a.a.a.a.a.a.a.a.a.a.a.a.a.a.s. .  W e , q.7.7.7.t.a.i.g.~   ",
"  N e.2.1.7.i.i.i.a.3 w W   / q.6.6.7.i.a.i.i.t.a.a.a.t.i.i.i.a.r.i.s. .  W e , w.3.3.3.r.r.i.d.~   ",
"  L u.e.e.e.f.g.d.h.3 1 W   ` u.e.t.y.g.g.g.g.d.g.g.g.g.g.g.g.g.h.s.h.+.  W e < y.e.e.e.s.h.s.j.(   ",
"o & h a p a h h h j   e [   < a p p p h h j h j j h h h h d j d h h j 3   _ r   a a p a h h h j : o ",
"x.% * * * * * * * * w [ 4.c > * : - : * * : * & + & & : : * : : * * * * x 4.{ e * - , * - * * * - z.",
"V.D G G G G U U U U U U J U U U U U U U U U U } ,.,.} U U U U U U U U U U J U U U U U U E U P R I C.",
"C                                             . Q [ .                                             V ",
"  j | ` ] ] +.+.+.O.O.+.+.+.O.+.O.+.+.+.+.#.)   c H   ^ ] ` ` ..+.+.+.+.+.O.+.O.O.O.+.+.#.+.O.$.b   ",
"  K y.q.q.e.s.s.s.s.s.s.s.s.s.s.s.s.s.s.s.g.8.  c H   =.t.e.q.y.s.s.s.s.s.s.s.s.s.s.s.s.s.s.a.h.^   ",
"  N e.2.7.7.a.a.a.a.r.a.i.i.a.a.a.i.a.i.i.a.5.  v H   @.w.2.9.9.a.a.a.i.i.i.a.i.i.a.i.i.i.i.i.s.~   ",
"  N e.7.7.7.a.a.a.a.a.a.a.a.a.a.a.a.a.a.a.s.5.  c H   @.w.3.7.w.a.a.a.a.a.a.a.a.a.a.a.a.a.a.i.h.~   ",
"  N e.7.7.7.a.a.a.a.a.a.a.a.a.a.a.a.a.a.i.a.5.  v H   @.w.7.3.r.a.a.a.a.a.a.a.a.a.a.a.a.a.a.i.s.~   ",
"  N e.7.7.q.a.a.a.a.a.a.a.a.a.a.a.a.a.a.a.s.5.  c H   @.w.7.7.w.a.a.a.a.a.a.a.a.a.a.a.a.a.p.i.h.~   ",
"  N e.7.7.7.a.a.a.a.a.a.a.a.a.a.a.a.a.a.a.s.5.  c H   @.9.3.7.w.a.a.a.a.a.a.a.a.a.a.a.a.a.a.r.h.~   ",
"  N t.7.7.q.a.a.a.a.a.s.a.a.a.s.a.a.a.a.a.s.5.  c H   @.w.3.7.t.a.a.s.a.a.s.a.a.a.a.a.a.a.s.i.h.~   ",
"  N q.2.2.6.r.0.r.0.r.r.0.r.r.r.r.r.r.r.r.i.;.  c c   @.3.2.2.9.i.0.r.0.r.r.0.r.i.r.r.0.i.0.0.s.~   ",
"5   X . X . . . . . . . . . . . . . . . . X .   U E     . . X X . . . . . . . . . . . . X . X X   4 ",
"n.t y y y y k k f f l s s f f f f f f k f k k J ,.4.U f f f s s f f f l f s s k f f f f f f k l g n.",
"M.u f f y g z l z f v o.,._ z z z z z l z l z l s f l z l x &.,.H f z z W ,.&.c z z z f z z z z g M.",
"6   X . . . . . . .   s } .   . . . . . . . . . X . . . . ; :.r.3 . X   . } f   . . . . X . . X   5 ",
"  N q.-.2.2.r.r.r.a.2 1 _   ^ 7.2.6.6.r.r.0.0.r.r.r.0.r.0.t.a.a.a.0.a.'   W w : 7.2.2.6.0.r.0.s.~   ",
"  B t.7.3.w.a.a.a.g.3 0 W   / t.7.7.r.a.a.s.a.s.a.s.a.s.a.a.a.a.a.a.h.O.  W e , e.7.q.q.a.a.a.g.~   ",
"  N t.6.7.7.a.a.r.s.2 1 W   / e.6.7.q.a.a.a.a.a.a.a.a.a.a.a.a.a.a.r.s.'   ` e , q.7.7.7.r.a.i.g.~   ",
"  N e.1.7.9.a.a.a.s.3 0 W   / e.7.7.q.a.a.a.a.a.a.a.a.a.a.a.a.a.a.a.s...  W e > q.7.7.7.t.a.a.g.~   ",
"  B t.7.7.7.t.a.a.s.2 0 W   ^ e.7.7.q.a.a.a.a.a.a.a.a.a.a.a.a.a.a.a.s. .  W e > q.7.7.7.r.a.a.g.~   ",
"  N e.7.7.7.a.a.a.s.2 0 W   / e.7.3.w.a.a.a.a.a.a.a.a.a.a.a.a.a.a.i.h.'   W e , w.7.7.7.r.a.a.h.~   ",
"  N e.2.2.7.a.i.a.a.2 0 W   ^ e.3.3.w.i.a.i.i.i.i.a.i.i.a.i.i.i.a.i.a.O.  W e , q.3.7.3.w.a.r.f.~   ",
"  K u.7.e.e.s.s.s.g.3 0 W   / y.q.w.t.s.s.s.s.s.s.s.s.s.s.s.s.s.h.a.h.O.  W e < t.e.q.w.s.s.a.j.^   ",
"  f +.] ] ] #.#.#.$.; 0 W   N | ` ] O.#.#.+.#.#.#.#.#.+.+.#.#.#.+.+.%.B   W e + | ] ] ] +.#.+.;.n   ",
"V                     c o.&                                             & &.v                     V ",
"V.D F S F G J U U J W >.,.X.U U U J U J U J U J H J U J J U J U P P P P X.,.*.W J U U J U J U J I C.",
"c.= * * * * > < > > : & & & > > < > > > > > > f *.*.k - < < - - < < > > & & * , < - < - > > > < - c.",
"@ + a p p e p p p p p h p p p p p d p p h a i   J J   3 p r p p p p p p p p p p p p d p a p p h ; o ",
"  K u.e.e.e.s.h.g.g.d.h.s.s.h.s.d.g.g.d.g.h.0.  c H   -.t.e.e.y.s.h.h.h.s.h.h.h.h.s.h.h.s.h.s.h.(   ",
"  N e.3.3.9.r.a.i.i.a.i.i.i.p.p.i.a.i.p.p.a.5.  c H   @.q.6.7.9.r.r.r.a.p.r.r.a.i.a.i.a.r.i.0.h.~   ",
"  N t.3.7.q.t.a.a.a.a.a.a.a.p.a.a.a.a.a.a.s.5.  c H   @.q.7.3.r.a.a.a.a.p.a.a.a.a.a.a.a.p.p.i.h.~   ",
"  B e.3.7.7.a.a.a.a.a.a.a.a.a.a.a.a.a.a.a.a.5.  c F   @.w.7.1.r.a.a.a.a.a.a.a.a.a.a.a.a.a.p.0.h.~   ",
"  N e.7.3.w.p.a.a.a.a.a.a.a.a.a.a.a.a.a.a.a.5.  c F   @.q.7.3.r.a.a.a.a.a.a.a.a.a.a.a.a.a.a.i.h.~   ",
"  N e.3.3.9.p.a.a.a.a.p.a.a.a.a.a.a.a.a.a.s.5.  c N   @.q.7.7.e.a.a.a.a.p.p.a.a.a.p.a.p.a.a.r.h.~   ",
"  N e.2.3.9.p.p.p.p.i.i.i.r.a.a.a.i.i.i.i.a.5.  c H   @.q.2.2.q.p.r.a.p.p.i.i.i.p.p.r.i.i.0.r.h.~   ",
"  K u.t.e.9.a.s.h.d.d.d.h.h.d.h.g.g.g.g.g.h.0.  v H   -.y.e.e.s.h.s.h.h.d.d.h.s.h.h.s.h.h.h.s.h.(   ",
"  e ~ B E q.7.( ~ ~ ~ ~ ~ ~ ~ ~ ~ ~ ~ ~ ~ ^ B   H F   m T K K Y T T ~ ~ ~ ~ ~ ~ ~ ~ ~ ~ ~ ~ ~ ( p   ",
"k.      7 Z.m.@                               8 m.B.8                                             k."
};
